<?xml version="1.0" standalone="no"?> 
<!DOCTYPE svg PUBLIC "-//W3C//DTD SVG 1.1//EN" "http://www.w3.org/Graphics/SVG/1.1/DTD/svg11.dtd" >
<svg xmlns="http://www.w3.org/2000/svg">
<defs>
  <font id="icon-16" horiz-adv-x="1500">
    <font-face font-family="icon-16"
      units-per-em="960" ascent="960"
      descent="0" />
    <missing-glyph horiz-adv-x="0" />
    <glyph glyph-name="apps"
      unicode="&#xE001;"
      horiz-adv-x="720" d=" M300 780V600C300 566.9 273.1 540 240 540H60C26.9 540 0 566.9 0 600V780C0 813.1 26.9 840 60 840H240C273.1 840 300 813.1 300 780zM660 840H480C446.9 840 420 813.1 420 780V600C420 566.9 446.9 540 480 540H660C693.1 540 720 566.9 720 600V780C720 813.1 693.1 840 660 840zM240 420H60C26.9 420 0 393.1 0 360V180C0 146.9 26.9 120 60 120H240C273.1 120 300 146.9 300 180V360C300 393.1 273.1 420 240 420zM660 420H480C446.9 420 420 393.1 420 360V180C420 146.9 446.9 120 480 120H660C693.1 120 720 146.9 720 180V360C720 393.1 693.1 420 660 420z" />
    <glyph glyph-name="arrow-down-rod"
      unicode="&#xE002;"
      horiz-adv-x="780" d=" M480 870V367.3L626.4 513.6999999999999C661.5 548.8 718.5 548.8 753.6999999999999 513.6999999999999C788.8 478.5999999999999 788.8 421.5999999999999 753.6999999999999 386.4L453.6999999999999 86.4C418.5999999999999 51.3 361.5999999999999 51.3 326.3999999999999 86.4L26.3999999999999 386.4C8.8 403.9 0 427 0 450C0 473 8.8 496.1 26.4 513.6C61.5 548.7 118.5 548.7 153.7 513.6L300 367.3V870C300 919.7 340.3 960 390 960L390 960C439.7 960 480 919.7 480 870z" />
    <glyph glyph-name="arrow-down-short"
      unicode="&#xE003;"
      horiz-adv-x="780" d=" M746.2 439.7000000000001L746.2 439.7000000000001C605.6 327.3000000000001 586.8000000000001 312.1 446.2000000000001 199.7000000000001L446.2000000000001 199.7000000000001C430.8 187.4 411.3 180 390 180S349.2 187.4 333.8 199.7000000000001L333.8 199.7000000000001C193.2 312.1 174.4 327.3000000000001 33.8 439.7000000000001L33.8 439.7000000000001C13.2 456.2 0 481.6 0 510C0 559.7 40.3 600 90 600C111.3 600 130.8 592.6 146.2 580.3L146.2 580.3C265.5 484.9 297.2 459.5 390 385.3C482.8 459.4999999999999 514.5 484.9 633.8 580.3L633.8 580.3C649.1999999999999 592.5999999999999 668.6999999999999 600 690 600C739.7 600 780 559.6999999999999 780 509.9999999999999C780 481.6 766.8 456.2 746.2 439.7000000000001z" />
    <glyph glyph-name="arrow-left-rod"
      unicode="&#xE004;"
      horiz-adv-x="900" d=" M900 510L900 510C900 460.3 859.7 420 810 420H307.3L453.7 273.6C488.8000000000001 238.5 488.8000000000001 181.5 453.7 146.3000000000001C436.1 128.8 413 120 390 120S343.9 128.8 326.4 146.4L26.4 446.4C-8.7 481.5 -8.7 538.5 26.4 573.7L326.4 873.7C361.5 908.8 418.5 908.8 453.7 873.7C488.8 838.6 488.8 781.6 453.7 746.4L307.3 600H810C859.7 600 900 559.7 900 510z" />
    <glyph glyph-name="arrow-left-short"
      unicode="&#xE005;"
      horiz-adv-x="420" d=" M330 839C379.7 839 420 798.7 420 749C420 727.7 412.6 708.2 400.3 692.8L400.3 692.8C304.9 573.5 279.5 541.8 205.3 449C279.5 356.2000000000001 304.9 324.5 400.3 205.2000000000001L400.3 205.2000000000001C412.6 189.8000000000001 420 170.3000000000001 420 149C420 99.3 379.7 59 330 59C301.6 59 276.2 72.2000000000001 259.7 92.8L259.7 92.8C147.3 233.4 132.1 252.2 19.7 392.8L19.7 392.8C7.4 408.2000000000001 0 427.7000000000001 0 449C0 470.3 7.4 489.8 19.7 505.2L19.7 505.2C132.1 645.8 147.3 664.6 259.7 805.2L259.7 805.2C276.2 825.8 301.6 839 330 839z" />
    <glyph glyph-name="arrow-right-rod"
      unicode="&#xE006;"
      horiz-adv-x="900" d=" M90 600H592.7L446.4 746.4C411.3 781.5 411.3 838.5 446.4 873.7C481.5 908.8 538.5 908.8 573.6999999999999 873.7L873.6999999999999 573.7C908.8 538.5999999999999 908.8 481.6 873.6999999999999 446.4L573.6999999999999 146.4C556.1 128.8 533 120 510 120S463.9 128.8 446.4 146.4C411.3 181.5 411.3 238.5 446.4 273.7L592.7 420H90C40.3 420 0 460.3 0 510L0 510C0 559.7 40.3 600 90 600z" />
    <glyph glyph-name="arrow-right-short"
      unicode="&#xE007;"
      horiz-adv-x="420" d=" M160.3 805.2L160.3 805.2C272.7000000000001 664.6 287.9 645.8 400.3 505.2L400.3 505.2C412.6 489.8 420 470.3 420 449S412.6 408.2000000000001 400.3 392.8L400.3 392.8C287.9 252.2 272.7000000000001 233.4 160.3 92.8L160.3 92.8C143.8 72.2000000000001 118.4 59 90 59C40.3 59 0 99.3 0 149C0 170.3 7.4 189.8 19.7 205.2000000000001L19.7 205.2000000000001C115.1 324.5 140.5 356.2000000000001 214.7 449.0000000000001C140.5 541.8000000000001 115.1 573.5 19.7 692.8000000000001L19.7 692.8000000000001C7.4 708.2 0 727.7 0 749C0 798.7 40.3 839 90 839C118.4 839 143.8 825.8 160.3 805.2z" />
    <glyph glyph-name="arrow-up-rod"
      unicode="&#xE008;"
      horiz-adv-x="780" d=" M299 150V652.7L152.6 506.4C117.5 471.3 60.5 471.3 25.3 506.4C-9.8 541.5 -9.8 598.5 25.3 633.7L325.3 933.7C360.4000000000001 968.8 417.4 968.8 452.6 933.7L752.6 633.7C770.2 616.1 779 593 779 570S770.2 523.9 752.6 506.4C717.5 471.3 660.5 471.3 625.3000000000001 506.4L479 652.7V150C479 100.3 438.7 60 389 60L389 60C339.3 60 299 100.3 299 150z" />
    <glyph glyph-name="arrow-up-short"
      unicode="&#xE009;"
      horiz-adv-x="780" d=" M780 270C780 220.3 739.7 180 690 180C668.7 180 649.2 187.4 633.8 199.7000000000001L633.8 199.7000000000001C514.5 295.1 482.8 320.5 390 394.7000000000001C297.2 320.5 265.5 295.1 146.1999999999999 199.7000000000001L146.1999999999999 199.7000000000001C130.8 187.4 111.3 180 90 180C40.3 180 0 220.3 0 270C0 298.4 13.2 323.8 33.8 340.3L33.8 340.3C174.4 452.6999999999999 193.2 467.9 333.8 580.3L333.8 580.3C349.2 592.5999999999999 368.7 600 390 600S430.8 592.5999999999999 446.2 580.3L446.2 580.3C586.8 467.9 605.6 452.6999999999999 746.2 340.3L746.2 340.3C766.8 323.8 780 298.4 780 270z" />
    <glyph glyph-name="balloon-comment"
      unicode="&#xE00A;"
      horiz-adv-x="1080" d=" M539.5 900C588.1 900 635.2 890.5 679.4 871.8C722.1999999999999 853.7 760.6999999999999 827.8 793.6999999999999 794.7C826.8 761.6 852.6999999999999 723.2 870.8 680.4C889.5 636.2 899 589.0999999999999 899 540.5C899 492.4 889.7 445.7000000000001 871.3 401.9L848.1999999999999 346.8L886.4999999999999 193.5L733.1999999999998 231.8L678.0999999999998 208.6999999999999C634.1999999999998 190.3 587.5999999999998 180.9999999999999 539.4999999999998 180.9999999999999C490.8999999999997 180.9999999999999 443.7999999999998 190.4999999999999 399.5999999999998 209.1999999999999C356.7999999999998 227.3 318.2999999999998 253.2 285.2999999999998 286.3C252.1999999999998 319.4 226.2999999999998 357.8 208.1999999999998 400.5999999999999C189.4999999999998 444.8 179.9999999999998 491.8999999999999 179.9999999999998 540.4999999999999C179.9999999999998 589.0999999999999 189.4999999999998 636.1999999999998 208.1999999999998 680.3999999999999C226.2999999999998 723.1999999999998 252.1999999999998 761.6999999999998 285.2999999999998 794.6999999999998C318.3999999999998 827.7999999999998 356.7999999999998 853.6999999999998 399.5999999999998 871.7999999999998C443.8 890.5 490.9 900 539.5 900M539.5 1080C241.5 1080 0 838.5 0 540.5S241.5 1 539.5 1C613.3 1 683.6 15.8 747.6 42.6C747.6 42.6 1036.3 -28.5 1044.7 -28.5C1092.1000000000001 -28.5 1118.4 8 1104.8 62.4L1037.3 332.3C1064.1 396.3 1078.8999999999999 466.6999999999999 1078.8999999999999 540.4C1079 838.5 837.5 1080 539.5 1080L539.5 1080z" />
    <glyph glyph-name="balloon-topic"
      unicode="&#xE00B;"
      horiz-adv-x="1020" d=" M900 960C660 960 360 960 120 960C53.7 960 0 906.3 0 840C0 600 0 480 0 240C0 173.7000000000001 53.7 120 120 120C321.4 120 565 120 780 120C824.7 86.5 865.4 56 924 12C934 4.5 946.5 0 960 0C993.1 0 1020 26.9 1020 60C1020 150 1020 150 1020 240C1020 480 1020 600 1020 840C1020 906.3 966.3 960 900 960zM240 720H780C813 720 840 693 840 660S813 600 780 600H240C207 600 180 627 180 660S207 720 240 720zM480 360H240C207 360 180 387 180 420S207 480 240 480H480C513 480 540 453 540 420S513 360 480 360z" />
    <glyph glyph-name="bell-off"
      unicode="&#xE00C;"
      horiz-adv-x="1200" d=" M1158 286.1C1112.2 315.7000000000001 1016.2 377.9 900 453V540C900 675.6 825.1 793.6 714.3 855C718 869.4 720 884.4 720 900C720 999.4 639.4 1080 540 1080S360 999.4 360 900C360 884.5 362 869.4 365.7 855C350.6 846.6 336.1 837.2 322.5 826.8C240.6 879.8 175 922.2 139.6 945.1C125.3 954.5 108.3 960 90 960C40.3 960 0 919.7 0 870C0 837.9 16.8 809.8 42 793.9C194.8 695 908.2 233.4 1060.4 134.9C1074.6000000000001 125.5 1091.6000000000001 120 1110 120C1159.7 120 1200 160.3 1200 210C1200 242.1 1183.2 270.2000000000001 1158 286.1zM540 960C573.1 960 600 933.1 600 900S573.1 840 540 840S480 866.9 480 900S506.9 960 540 960zM181 566.3C409.7 418.3 716 220.1 870.7 120H660C660 53.7 606.3 0 540 0S420 53.7 420 120H150C100.3 120 60 160.3 60 210S100.3 300 150 300H180V540C180 548.8 180.3 557.6 181 566.3z" />
    <glyph glyph-name="bell"
      unicode="&#xE00D;"
      horiz-adv-x="960" d=" M870 300H840V540C840 675.6 765.1 793.6 654.3 855C658 869.4 660 884.4 660 900C660 999.4 579.4 1080 480 1080S300 999.4 300 900C300 884.5 302 869.4 305.7 855C194.9 793.6 120 675.6 120 540V300H90C40.3 300 0 259.7000000000001 0 210L0 210C0 160.3 40.3 120 90 120H360C360 53.7 413.7 0 480 0S600 53.7 600 120H870C919.7 120 960 160.3 960 210L960 210C960 259.7000000000001 919.7 300 870 300zM480 960C513.1 960 540 933.1 540 900S513.1 840 480 840S420 866.9 420 900S446.9 960 480 960z" />
    <glyph glyph-name="bookmark"
      unicode="&#xE00E;"
      horiz-adv-x="720" d=" M660 900C540 900 180 900 60 900C26.9 900 0 873.1 0 840C0 720 0 240 0 120C0 86.9 26.9 60 60 60C74.2 60 87.2 64.9 97.5 73.2000000000001L97.5 73.2000000000001C179 138.4 274.8 215 360 283.2000000000001C445.2 215 541 138.4000000000001 622.5 73.2000000000001L622.5 73.2000000000001C632.8 65 645.8 60 660 60C693.1 60 720 86.9 720 120C720 240 720 720 720 840C720 873.1 693.1 900 660 900z" />
    <glyph glyph-name="building"
      unicode="&#xE00F;"
      horiz-adv-x="1080" d=" M990 1020C810 1020 810 1020 630 1020C580.3 1020 540 979.7 540 930C540 856.4 540 732.8 540 600C406 600 238.4 600 90 600C40.3 600 0 559.7 0 510C0 330 0 270 0 90C0 40.3 40.3 0 90 0C153.9 0 810 0 990 0C1039.7 0 1080 40.3 1080 90C1080 270 1080 750 1080 930C1080 979.7 1039.7 1020 990 1020zM540 120C512.6 120 468.7 120 420 120C420 157.6 420 176.1 420 240C420 273.1 393.1 300 360 300C330 300 330 300 300 300C266.9 300 240 273.1 240 240C240 176.1 240 157.6 240 120C198.8 120 165.6 120 150 120C133.4 120 120 133.4 120 150C120 210 120 390 120 450C120 466.6 133.4 480 150 480C202.5 480 453.2 480 540 480V120zM780 240C780 206.9 753.1 180 720 180S660 206.9 660 240C660 270 660 270 660 300C660 333.1 686.9 360 720 360S780 333.1 780 300C780 270 780 270 780 240zM780 480C780 446.9 753.1 420 720 420S660 446.9 660 480C660 510 660 510 660 540C660 573.1 686.9 600 720 600S780 573.1 780 540C780 510 780 510 780 480zM780 720C780 686.9 753.1 660 720 660S660 686.9 660 720C660 750 660 750 660 780C660 813.1 686.9 840 720 840S780 813.1 780 780C780 750 780 750 780 720zM960 240C960 206.9 933.1 180 900 180S840 206.9 840 240C840 270 840 270 840 300C840 333.1 866.9 360 900 360S960 333.1 960 300C960 270 960 270 960 240zM960 480C960 446.9 933.1 420 900 420S840 446.9 840 480C840 510 840 510 840 540C840 573.1 866.9 600 900 600S960 573.1 960 540C960 510 960 510 960 480zM960 720C960 686.9 933.1 660 900 660S840 686.9 840 720C840 750 840 750 840 780C840 813.1 866.9 840 900 840S960 813.1 960 780C960 750 960 750 960 720z" />
    <glyph glyph-name="bullhorn"
      unicode="&#xE010;"
      horiz-adv-x="1200" d=" M1077.5 1026.6C1010.8 1134.2 938.3 1146.5 889.2 1137.8C873.8000000000001 1135.1 856.3000000000001 1129.4 840.1 1119.5L158.1 701.4C139.9 709.0999999999999 119.9 711.7 98.4 707.9C18.2 693.6 -13 603.1 4.9 501.4S86.6 326 163 339.5C184.9 343.4 203.4 353.6 218.2 368.7000000000001L310.6 351.9000000000001C303.2000000000001 321.2000000000001 301.8 288.4000000000001 307.6 255.3000000000001C330.1 126.8 452 41 579.9 63.6C684.1999999999999 82.1 760.3 167.1 772.4 267.6L995.7 226.9C1015.3 223.1 1033.3 223.8 1049 226.5C1098.6 235.3 1163.2 271.8 1188.9 395.9C1206.1000000000001 479 1203.3000000000002 590.9 1180.7 719.5999999999999C1158.2 847.7 1122.6 953.9 1077.5 1026.6zM659.4 211.6C636.9 179.3000000000001 603.1999999999999 157.7000000000001 564.6 150.9C526 144.1 487 152.6999999999999 454.8 175.4C422.7 198 401.2 231.9 394.4000000000001 270.7C390.5000000000001 292.8 391.7000000000001 315.0999999999999 397.5000000000001 336.0999999999999L685.4000000000001 283.5999999999999C683.3 257.9 674.4 233.2000000000001 659.4 211.6zM1127.4 410.1C1116.1000000000001 338.7000000000001 1090.6000000000001 299 1051.9 292.2000000000001C1013.2 285.3000000000001 975.8 314.1 940.7 377.8000000000001C904.2 443.9000000000001 873.8000000000001 542.1000000000001 852.9000000000001 661.7C832.0000000000001 780.7 827.4000000000001 883.4000000000001 839.5000000000001 958.7C845.4000000000001 995.2 855.0000000000001 1024 868.2000000000002 1044.2C880.6000000000001 1063.2 895.7000000000002 1074 914.3000000000002 1077.3C933.0000000000002 1080.6000000000001 950.9000000000002 1075.7 968.9000000000002 1062.2C988.1000000000003 1047.9 1006.9000000000002 1024.4 1024.8000000000002 992.2C1061.7000000000003 925.8 1092.4 827.5 1113.4 707.8000000000001C1134.3 587.4 1139.2 484.5 1127.4 410.1z" />
    <glyph glyph-name="calendar"
      unicode="&#xE011;"
      horiz-adv-x="960" d=" M840 840H780V960H600V840H360V960H180V840H120C53.7 840 0 786.3 0 720V120C0 53.7 53.7 0 120 0H840C906.3 0 960 53.7 960 120V720C960 786.3 906.3 840 840 840zM840 120H120V600H840V120zM780 180H660V300H780V180zM780 360H660V480H780V360zM600 180H480V300H600V180z" />
    <glyph glyph-name="camera"
      unicode="&#xE012;"
      horiz-adv-x="1080" d=" M900 900H840C840 999.4 759.4 1080 660 1080H420C320.6 1080 240 999.4 240 900H180C80.6 900 0 819.4 0 720V240C0 140.6 80.6 60 180 60H900C999.4 60 1080 140.6 1080 240V720C1080 819.4 999.4 900 900 900zM540 240C374.3 240 240 374.3 240 540S374.3 840 540 840S840 705.7 840 540S705.7 240 540 240zM540 360C440.6 360 360 440.6 360 540S440.6 720 540 720S720 639.4 720 540S639.4 360 540 360z" />
    <glyph glyph-name="cancel"
      unicode="&#xE013;"
      horiz-adv-x="720" d=" M693.6 273.6C728.7 238.5 728.7 181.5 693.6 146.3000000000001C676.1 128.8 653 120 630 120S583.9 128.8 566.4 146.4L360 352.7000000000001L153.6 146.4C136.1 128.8 113 120 90 120S43.9 128.8 26.4 146.4C-8.7 181.5 -8.7 238.5 26.4 273.7L232.7 480L26.4 686.4C-8.7 721.5 -8.7 778.5 26.4 813.7C61.5 848.8 118.5 848.8 153.7 813.7L360 607.3L566.4 813.7C601.5 848.8 658.5 848.8 693.6999999999999 813.7C728.8 778.6 728.8 721.6 693.6999999999999 686.4000000000001L487.3 480L693.6 273.6z" />
    <glyph glyph-name="checkbox-checked"
      unicode="&#xE014;"
      horiz-adv-x="960" d=" M840 960H120C53.7 960 0 906.3 0 840V120C0 53.7 53.7 0 120 0H840C906.3 0 960 53.7 960 120V840C960 906.3 906.3 960 840 960zM360 215.1L137.6 437.6L222.5 522.5L360 384.9L737.6 762.5L822.5 677.6L360 215.1z" />
    <glyph glyph-name="checkbox-indeterminate"
      unicode="&#xE015;"
      horiz-adv-x="960" d=" M960 840C960 906.3 906.3 960 840 960H120C53.7 960 0 906.3 0 840V120C0 53.7 53.7 0 120 0H840C906.3 0 960 53.7 960 120V840zM780 420H180V540H780V420z" />
    <glyph glyph-name="checkbox-unchecked"
      unicode="&#xE016;"
      horiz-adv-x="960" d=" M840 900C873.1 900 900 873.1 900 840V120C900 86.9 873.1 60 840 60H120C86.9 60 60 86.9 60 120V840C60 873.1 86.9 900 120 900H840M840 960H120C53.7 960 0 906.3 0 840V120C0 53.7 53.7 0 120 0H840C906.3 0 960 53.7 960 120V840C960 906.3 906.3 960 840 960L840 960z" />
    <glyph glyph-name="checkmark"
      unicode="&#xE017;"
      horiz-adv-x="900" d=" M900 690C900 739.7 859.7 780 810 780C785.1 780 762.6 769.9 746.4 753.6C638.3 645.6 459.4 466.7 330 337.3C268 399.3 247.6 419.7 153.6 513.6999999999999L153.6 513.6999999999999C137.4 529.9 114.9 540 90 540C40.3 540 0 499.7 0 450C0 425.1 10.1 402.6 26.4 386.4C146.4 266.4 146.4 266.4 266.4 146.4C282.7 130.1 305.2 120 330 120C354.9 120 377.4 130.1 393.6 146.4V146.4C520.9 273.7 746.3 499.1 873.6 626.4L873.6 626.4C889.9 642.6 900 665.1 900 690z" />
    <glyph glyph-name="circle-arrow"
      unicode="&#xE018;"
      horiz-adv-x="960" d=" M960 480C960 415.2000000000001 947.3 352.4 922.3 293.1C898.0999999999999 235.9 863.5 184.6 819.5 140.5C775.4 96.4 724.1 61.8 666.9 37.7C607.6 12.7 544.8 0 480 0S352.4 12.7 293.1 37.7C235.9000000000001 61.9000000000001 184.6 96.5 140.5 140.5C117.1 163.9 117.1 201.9 140.5 225.4L455.1 540H360C326.9 540 300 566.9 300 600S326.9 660 360 660H600C633.1 660 660 633.1 660 600V360C660 326.9 633.1 300 600 300S540 326.9 540 360V455.1L271.4 186.5C331.9 143.3 404.1 120 480 120C576.2 120 666.6 157.4 734.6 225.4S840 383.8 840 480S802.6 666.6 734.6 734.6C666.6 802.6 576.2 840 480 840S293.4 802.6 225.4 734.6C157.4 666.6 120 576.2 120 480C120 448.4 124.1 417 132.2 386.8C140.8 354.8 121.7 321.9 89.7 313.3C57.7 304.7 24.8 323.8 16.2 355.8C5.5 396.1 0 437.9 0 480C0 544.8 12.7 607.6 37.7 666.9C61.9 724 96.5 775.3 140.6 819.4C184.7 863.5 236 898.1 293.1 922.3C352.4 947.3 415.2 960 480 960S607.6 947.3 666.9 922.3C724 898.1 775.3 863.5 819.4 819.4C863.5 775.3 898.1 724 922.2 666.8C947.3 607.6 960 544.8 960 480z" />
    <glyph glyph-name="clear"
      unicode="&#xE019;"
      horiz-adv-x="1080" d=" M540 1020C241.8 1020 0 778.2 0 480S241.8 -60 540 -60S1080 181.8 1080 480S838.2 1020 540 1020zM762.4 342.4C785.8 319 785.8 281 762.4 257.5C750.6999999999999 245.9 735.4 240 720 240S689.3 245.9 677.6 257.6L540 395.1L402.4 257.6C390.7 245.9 375.4 240 360 240C344.6 240 329.3 245.9 317.6 257.6C294.2000000000001 281 294.2000000000001 319 317.6 342.5L455.1 480L317.6 617.6C294.2000000000001 641 294.2000000000001 679 317.6 702.5C341 725.9 379 725.9 402.5 702.5L540 564.9L677.6 702.5C701 725.9 739 725.9 762.5 702.5C785.9 679.1 785.9 641.1 762.5 617.6L624.9 480L762.4 342.4L762.4 342.4z" />
    <glyph glyph-name="clip"
      unicode="&#xE01A;"
      horiz-adv-x="600" d=" M600 781C600 714.3 600 546.9 600 480C600 380.6 519.4 300 420 300S240 380.6 240 480C240 599.9 240 600 240 720C240 753.1 266.9 780 300 780S360 753.1 360 720C360 600 360 599.9 360 480C360 446.9 386.9 420 420 420S480 446.9 480 480C480 546.6 480 712.6 480 780C480 879.4 399.4 960 300 960S120 879.4 120 780C120 672.7 120 406.6 120 300C120 200.6 200.6 120 300 120C365.7 120 423.2 155.2000000000001 454.6 207.9C509.6 213.9 559.4 236.9 598.6 271.7C584.4 119.3 456.1 0 300 0C134.3 0 0 134.3 0 300C0 406.9 0 674.4 0 781H0C0.6 946.2 134.6 1080 300 1080S599.4 946.2 600 781L600 781z" />
    <glyph glyph-name="clock"
      unicode="&#xE01B;"
      horiz-adv-x="960" d=" M480 960C214.9 960 0 745.1 0 480S214.9 0 480 0S960 214.9 960 480S745.1 960 480 960zM600 360C510 360 510 360 420 360C386.9 360 360 386.9 360 420C360 516 360 564 360 660C360 693.1 386.9 720 420 720S480 693.1 480 660C480 586.2 480 540.7 480 480C518 480 536.1 480 600 480C633.1 480 660 453.1 660 420S633.1 360 600 360z" />
    <glyph glyph-name="cloud"
      unicode="&#xE01C;"
      horiz-adv-x="1080" d=" M871 120L871 120C577 120 576.5 120 240 120C107.5 120 0 227.5 0 360C0 475.1 81 571.2 189 594.6C183.1 615.4000000000001 180 637.4000000000001 180 660C180 792.5 287.5 900 420 900C520.8 900 607 837.9 642.6 749.9C674.2 769 711.3 780 751 780C867 780 961 686 961 570C961 553.4 959.1 537.3 955.5 521.9C1028.8 489.1 1080 415.5 1080 330C1080 214.4 987 120.6 871 120z" />
    <glyph glyph-name="code-file"
      unicode="&#xE01D;"
      horiz-adv-x="1080" d=" M400.3 206.2000000000001C412.6 190.8000000000001 420 171.3000000000001 420 150C420 100.3 379.7 60 330 60C301.6 60 276.2 73.2000000000001 259.7 93.8L259.7 93.8C147.3 234.4 132.1 253.2 19.7 393.8L19.7 393.8C7.4 409.2000000000001 0 428.7000000000001 0 450S7.4 490.8 19.7 506.2L19.7 506.2C132.1 646.8 147.3 665.6 259.7 806.2L259.7 806.2C276.2 826.8 301.5 840 330 840C379.7 840 420 799.7 420 750C420 728.7 412.6 709.2 400.3 693.8L400.3 693.8C304.9 574.5 279.5 542.8 205.3 450C279.5 357.2000000000001 304.8 325.5 400.3 206.2000000000001L400.3 206.2000000000001zM679.7 206.2000000000001C667.4 190.8 660 171.3 660 150C660 100.3 700.3 60 750 60C778.4 60 803.8 73.2000000000001 820.3 93.8L820.3 93.8C932.7 234.4 947.9 253.2 1060.3 393.8L1060.3 393.8C1072.6 409.2 1080 428.7 1080 450S1072.6 490.8 1060.3 506.1999999999999L1060.3 506.1999999999999C947.9 646.8 932.7 665.5999999999999 820.3 806.1999999999999L820.3 806.1999999999999C803.8 826.8 778.4 840 750 840C700.3 840 660 799.7 660 750C660 728.7 667.4 709.2 679.7 693.8L679.7 693.8C775.1 574.5 800.5 542.8 874.7 450C800.5 357.2000000000001 775.2 325.5 679.7 206.2000000000001L679.7 206.2000000000001z" />
    <glyph glyph-name="command-line"
      unicode="&#xE01E;"
      horiz-adv-x="960" d=" M780 60H180C80.7 60 0 140.7000000000001 0 240V720C0 819.3 80.7 900 180 900H780C879.3 900 960 819.3 960 720V240C960 140.7000000000001 879.3 60 780 60zM180 780C146.9 780 120 753.1 120 720V240C120 206.9 146.9 180 180 180H780C813.1 180 840 206.9 840 240V720C840 753.1 813.1 780 780 780H180zM282.4 317.6L402.4 437.6C425.8 461 425.8 499 402.4 522.5L282.4 642.5C259 665.9 221 665.9 197.5 642.5C174.1 619.1 174.1 581.1 197.5 557.6L275.1 480L197.5 402.4C174.1 379 174.1 341 197.5 317.5C209.2 305.8 224.6 299.9 239.9 299.9S270.7 305.9 282.4 317.6zM780 360C780 393.1 753.1 420 720 420H540C506.9 420 480 393.1 480 360S506.9 300 540 300H720C753.1 300 780 326.9 780 360z" />
    <glyph glyph-name="contract"
      unicode="&#xE01F;"
      horiz-adv-x="960" d=" M480 900.1V480H59.9L227.6 647.8L17.4 858.7L102.4 943.4L312.5 732.6L480 900.1zM899.6 480H480V60.4L647.4 228L857.2 18L942.1 102.8L732 312.6L899.6 480z" />
    <glyph glyph-name="cup"
      unicode="&#xE020;"
      horiz-adv-x="1200" d=" M990 720C962.4 720 936 714.6 911.8 704.9C833.9 784.9 669.8 840 480 840C214.9 840 0 732.5 0 600V540C0 274.9 214.9 60 480 60H480C664.9 60 825.3 164.5 905.5 317.7000000000001C931.4 306.3000000000001 959.9 300 990 300C1106 300 1200 394 1200 510S1106 720 990 720zM480 480C281.2 480 120 533.7 120 600S281.2 720 480 720S840 666.3 840 600S678.8 480 480 480zM990 420C974.6 420 960.1 423.9 947.5 430.7000000000001C955.7 465.8000000000001 960 502.4 960 540V594.9000000000001C969.4 598.2 979.5 600 990 600C1039.7 600 1080 559.7 1080 510.0000000000001S1039.7 420 990 420z" />
    <glyph glyph-name="database"
      unicode="&#xE021;"
      horiz-adv-x="840" d=" M420 960C188 960 0 852.5 0 720V300C0 167.5 188 60 420 60S840 167.5 840 300V720C840 852.5 652 960 420 960zM420 600C254.3 600 120 653.7 120 720S254.3 840 420 840S720 786.3 720 720S585.7 600 420 600z" />
    <glyph glyph-name="download"
      unicode="&#xE022;"
      horiz-adv-x="900" d=" M900 270C900 150 900 210 900 90C900 40.3 859.7 0 810 0C630 0 270 0 90 0C40.3 0 0 40.3 0 90C0 210 0 150 0 270C0 319.7000000000001 40.3 360 90 360S180 319.7000000000001 180 270C180 210 180 195 180 180C339 180 561 180 720 180C720 195 720 210 720 270C720 319.7000000000001 760.3 360 810 360S900 319.7000000000001 900 270zM386.4 266.4C402.7 250.1 425.2 240 450 240S497.4 250.1 513.6 266.4C633.6 386.4 633.6 386.4 753.6 506.4C769.9 522.7 780 545.2 780 570C780 619.7 739.7 660 690 660C665.1 660 642.6 649.9 626.4 633.6C587.9 595.1 562 569 540 547.3C540 678.7 540 816.3 540 930C540 979.7 499.7 1020 450 1020S360 979.7 360 930C360 816.3 360 678.6 360 547.3C338 569 312.1 595.2 273.6 633.7C257.4 649.9 234.9 660 210 660C160.3 660 120 619.7 120 570C120 545.1 130.1 522.6 146.4 506.4C266.4 386.4 266.4 386.4 386.4 266.4z" />
    <glyph glyph-name="dribbble"
      unicode="&#xE023;"
      horiz-adv-x="960" d=" M895.6 721.2C938.8 647.5 960 566.9 960 480C960 305.6 868.1 150 721.2 64.4C647.5 21.2 566.9 0 480 0C305.6 0 150 91.9 64.4 239.4C21.2 312.5 0 393.1 0 480C0 654.4 91.9 810 239.4 895.6C312.5 938.8 393.1 960 480 960C654.4 960 810 868.1 895.6 721.2zM883.8 485.6L890 484.4C888.8 581.3000000000001 857.5 666.3000000000001 796.9 740.6L796.3 740C792.5 735 788.8 730 784.4 725C776.3 714.4000000000001 744.4 683.1 713.1999999999999 659.4000000000001S625.6999999999999 601.3 568.1999999999999 578.2C578.8 556.3000000000001 587.5999999999999 536.3000000000001 595.6999999999999 518.8000000000001C597.5999999999999 513.8000000000001 601.9 501.9000000000001 604.4999999999999 497.6000000000001C634.4999999999999 502.0000000000001 667.5999999999999 503.2000000000001 696.9999999999999 503.2000000000001S755.0999999999999 502.0000000000001 780.0999999999999 500.1000000000001C805.0999999999999 497.6000000000001 827.5999999999999 495.1000000000001 845.6999999999999 492.6000000000001C863.1 489.4 875.6 487.5 883.8 485.6zM750.6 787.5C673.8 855.6 583.1 890 480 890C448.1 890 416.2 886.2 383.1 878.1C437.5 807.5 488.7 727.5 536.9000000000001 639.3C594.4000000000001 661.1999999999999 648.8000000000001 693.0999999999999 678.8000000000001 715.5C708.2 738 736.9000000000001 768 743.2 776.6999999999999C746.2 781.2 748.8 784.4 750.6 787.5zM381.9 878.1C381.3 878.1 381.3 878.1 380.7 877.5C381.2 878.1 381.2 878.1 381.9 878.1zM885 415C797.5 440 712.5 446.2000000000001 629.4 433.1C665.6 333.7000000000001 692.5 235.6 709.4 140C801.9 202.5 866.9 301.9 885 415zM457.5 614.4C407.5 703.2 356.9 781.9 305 850.5999999999999C190 796.2 105.6 690 78.8 564.4C204.4 564.4 330.6 581.2 457.5 614.4zM524.4 481.9C515.6 502.5 504.4 525.7 491.3 551.3C361.9 512.5 221.3 493.1999999999999 70.6999999999999 493.1999999999999C70 490 70 485.6 70 480C70 376.9 108.1 280.6 175 206.2000000000001C216.9 280.6 283.8 348.7000000000001 341.2 388.1S453.1 456.9 485 468.7L508.1 476.8000000000001C511.2 477.5 521.2 480 524.4 481.9zM640 102.5C622.5 203.1 593.1 306.9 552.5 413.7000000000001H551.3L550.0999999999999 413.1C543.1999999999999 410.6 534.4999999999999 407.5 523.1999999999999 403.1C500.6999999999999 394.3000000000001 427 357.5 374.3999999999999 321.2000000000001S257.4999999999999 221.2000000000001 228.2 156.8000000000001L218.7999999999999 163.7000000000001C295.6 101.2000000000001 382.5 70 480 70C535 70 588.1 80.6 640 102.5z" />
    <glyph glyph-name="ellipsis-vertical"
      unicode="&#xE024;"
      horiz-adv-x="301" d=" M301 90C301 7.2 233.8 -60 151 -60S1 7.2 1 90S68.2 240 151 240S301 172.8 301 90zM151 780C233.8 780 301 847.2 301 930S233.8 1080 151 1080S1 1012.8 1 930S68.2 780 151 780zM151 660C68.2 660 1 592.8 1 510S68.2 360 151 360S301 427.2000000000001 301 510S233.8 660 151 660z" />
    <glyph glyph-name="ellipsis"
      unicode="&#xE025;"
      horiz-adv-x="1320" d=" M360 540C360 440.6 279.4 360 180 360S0 440.6 0 540S80.6 720 180 720S360 639.4 360 540zM660 720C560.6 720 480 639.4 480 540S560.6 360 660 360S840 440.6 840 540S759.4 720 660 720zM1140 720C1040.6 720 960 639.4 960 540S1040.6 360 1140 360S1320 440.6 1320 540S1239.4 720 1140 720z" />
    <glyph glyph-name="expand"
      unicode="&#xE026;"
      horiz-adv-x="960" d=" M252.6 792.6L463.4 582.5L378.7 497.5L167.7 707.7L0 540V960H420L252.6 792.6zM792.4 252.4L582.4 462.4L497.5 377.5L707.5 167.5L540 0H960V420L792.4 252.4z" />
    <glyph glyph-name="external"
      unicode="&#xE027;"
      horiz-adv-x="840" d=" M720 420V120C720 86.9 693.1 60 660 60H60C26.9 60 0 86.9 0 120V720C0 753.1 26.9 780 60 780H360C393.1 780 420 753.1 420 720V720C420 686.9 393.1 660 360 660H120V180H600V420C600 453.1 626.9 480 660 480H660C693.1 480 720 453.1 720 420zM840 900H540L647.6 792.4L317.6 462.4C294.2000000000001 439 294.2000000000001 401 317.6 377.5C329.3 365.8 344.7000000000001 359.9 360 359.9S390.7 365.8 402.4 377.5L732.4 707.5L840 600V900z" />
    <glyph glyph-name="eye"
      unicode="&#xE028;"
      horiz-adv-x="1080" d=" M540 240C407.5 240 300 347.5 300 480S407.5 720 540 720S780 612.5 780 480S672.5 240 540 240zM785.7 96.4C852.4000000000001 118.8 909.6 151.6 955.6 193.9C997.8 232.7 1030.1 278.9 1051.5 331.0999999999999C1070.8 378.0999999999999 1080.5 428.2 1080.5 479.7999999999999C1080.5 531.3999999999999 1070.6 581.4999999999999 1051 628.8999999999999C1029.4 681.0999999999999 997 727.2999999999998 954.6 766.2999999999998C908.5 808.6999999999998 851.3000000000001 841.5999999999999 784.7 864.0999999999999C713.6 888.0999999999999 631.2 900.2999999999998 540 900.2999999999998C448.7 900.2999999999998 366.5 888.0999999999999 295.4 864.0999999999999C228.9 841.5999999999999 171.9 808.6999999999998 125.8 766.1999999999998C83.5 727.1999999999998 51.2 680.9999999999999 29.7 628.7999999999998C10.4 581.5 0.5 531.4 0.5 479.8C0.5 286.3 141.8 60.3 540 60.3C631.8 60.3 714.5 72.5 785.7 96.4zM746.3 750.5C796.9 733.4 839.5999999999999 709 873.4 678C949.2 608.3 960.6 523.9 960.6 479.9C960.6 435.7 949.4 351.2000000000001 874.4 282.2000000000001C840.9 251.4000000000001 798.1999999999999 227.1 747.6 210.1C688.7 190.3000000000001 618.9000000000001 180.3000000000001 540.1 180.3000000000001C461.3 180.3000000000001 391.5 190.3000000000001 332.8 210.1C282.3 227.1 239.8 251.3000000000001 206.4 282.1C131.8 351 120.6 435.5 120.6 479.8C120.6 524 131.9 608.4 207.3 678C240.9 709 283.5 733.4 334 750.4C392.6 770.2 462 780.3 540.1 780.3C618.2 780.4 687.6 770.3 746.3 750.5z" />
    <glyph glyph-name="facebook"
      unicode="&#xE029;"
      horiz-adv-x="540" d=" M529.6 1012.6V850.8H433.4000000000001C362.9000000000001 850.8 343.9000000000001 821.4 343.9000000000001 762.5V660H523.5L499.6 478.6H343.9V0H156.3V478.6H0V660H156.3V780.3C156.3 932.3 248.2 1020 389.8 1020C449.9 1020 496.5 1017.5 529.6 1012.6z" />
    <glyph glyph-name="file-js"
      unicode="&#xE02A;"
      horiz-adv-x="960" d=" M900 660H720C720 684.1 720 704.5 720 720C720 736.6 713.3 751.6 702.4 762.4C617.5 847.3 607.3 857.5 522.4 942.4C511.6 953.3 496.6 960 480 960C360 960 180 960 60 960C26.9 960 0 933.1 0 900C0 780 0 180 0 60C0 26.9 26.9 0 60 0C180 0 540 0 660 0C693.1 0 720 26.9 720 60C720 87 720 129.3 720 180H900C933.1 180 960 206.9 960 240V600C960 633.1 933.1 660 900 660zM600 120C471.4 120 248.6 120 120 120C120 287.8 120 672.2 120 840C225.5 840 356 840 455.1 840C518.8000000000001 776.3 536.3000000000001 758.8 600 695.1C600 684.6 600 672.8 600 660H240C206.9 660 180 633.1 180 600V240C180 206.9 206.9 180 240 180H600C600 158.3 600 138.1 600 120zM540 510C540 470 540 430 540 390C540 340.3 499.7 300 450 300S360 340.3 360 390C360 406.6 373.4 420 390 420S420 406.6 420 390S433.4 360 450 360S480 373.4 480 390C480 400 480 410 480 420C480 450 480 480 480 510C480 526.6 493.4 540 510 540S540 526.6 540 510zM763.4 483.2C763.4 483.2 763.4 483.1 763.4 483.2C763.1999999999999 483.1 763 483 762.9 483C733 468 715.8 459.5 697.1 450.1C715.9 440.7000000000001 733 432.1 762.9 417.2000000000001C763 417.1 763.1999999999999 417.1 763.3 417C763.3 417 763.4 417 763.4 417L763.4 417C773.1999999999999 412.1 780 401.9 780 390.2000000000001S773.2 368.3000000000001 763.4 363.4000000000001L763.4 363.4000000000001C763.4 363.4000000000001 763.3 363.4000000000001 763.3 363.4000000000001C763.1999999999999 363.3000000000001 763 363.3000000000001 762.9 363.2000000000001C709.6999999999999 336.6 696.9 330.2000000000001 643.4 303.4000000000001L643.4 303.4000000000001C639.4 301.4000000000001 634.8 300.2000000000001 630 300.2000000000001C613.4 300.2000000000001 600 313.6 600 330.2000000000001C600 341.9000000000001 606.8 352.1 616.6 357L616.6 357C616.6 357 616.7 357 616.7 357C616.8000000000001 357.1 617 357.1 617.1 357.2000000000001C647 372.2000000000001 664.2 380.7000000000001 682.9 390.1C664.1 399.5 647 408.1 617.1 423C617 423.1 616.8000000000001 423.1 616.7 423.2000000000001C616.7 423.2000000000001 616.6 423.2000000000001 616.6 423.2000000000001L616.6 423.2000000000001C606.8000000000001 428.1 600 438.3000000000001 600 450.0000000000001S606.8 471.9 616.6 476.8000000000001L616.6 476.8000000000001C616.6 476.8000000000001 616.7 476.8000000000001 616.7 476.8000000000001C616.8000000000001 476.9000000000001 617 476.9000000000001 617.1 477.0000000000001C670.3000000000001 503.6000000000001 683.1 510.0000000000001 736.6 536.8000000000001L736.6 536.8000000000001C740.6 538.8000000000001 745.2 540 750 540C766.6 540 780 526.6000000000001 780 510.0000000000001C780 498.3 773.2 488.1 763.4 483.2L763.4 483.2z" />
    <glyph glyph-name="file-zip"
      unicode="&#xE02B;"
      horiz-adv-x="960" d=" M900 660H720C720 684.1 720 704.5 720 720C720 736.6 713.3 751.6 702.4 762.4C617.5 847.3 607.3 857.5 522.4 942.4C511.6 953.3 496.6 960 480 960C360 960 180 960 60 960C26.9 960 0 933.1 0 900C0 780 0 180 0 60C0 26.9 26.9 0 60 0C180 0 540 0 660 0C693.1 0 720 26.9 720 60C720 87 720 129.3 720 180H900C933.1 180 960 206.9 960 240V600C960 633.1 933.1 660 900 660zM600 330C600 313.4 586.6 300 570 300S540 313.4 540 330V510C540 526.6 553.4 540 570 540S600 526.6 600 510V330zM600 660H240C206.9 660 180 633.1 180 600V240C180 206.9 206.9 180 240 180H600C600 158.3 600 138.1 600 120C471.4 120 248.6 120 120 120C120 287.8 120 672.2 120 840C225.5 840 356 840 455.1 840C518.8000000000001 776.3 536.3000000000001 758.8 600 695.1C600 684.6 600 672.8 600 660zM450 360C466.6 360 480 346.6 480 330S466.6 300 450 300C390 300 390 300 330 300C313.4 300 300 313.4 300 330C300 336.2000000000001 301.9 341.9 305 346.6V346.6C305 346.6 305 346.6 305 346.6C305 346.7000000000001 305.1 346.7000000000001 305.1 346.8000000000001C329.3 383.0000000000001 363.9000000000001 435.1 393.9000000000001 480.0000000000001C377.5000000000001 480.0000000000001 362.6 480.0000000000001 330.0000000000001 480.0000000000001C313.4000000000001 480.0000000000001 300.0000000000001 493.4 300.0000000000001 510.0000000000001S313.4000000000001 540 330.0000000000001 540C390.0000000000001 540 390.0000000000001 540 450.0000000000001 540C466.6000000000001 540 480.0000000000001 526.6000000000001 480.0000000000001 510.0000000000001C480.0000000000001 503.8000000000001 478.1000000000001 498.1000000000001 475.0000000000001 493.4V493.4C475.0000000000001 493.4 475.0000000000001 493.4 475.0000000000001 493.4C475.0000000000001 493.3 474.9 493.3 474.9 493.2C450.7 457.0000000000001 416.1 404.9000000000001 386.1 360C402.5 360 417.4 360 450 360zM840 450C840 400.3 799.7 360 750 360H720V330C720 313.4 706.6 300 690 300S660 313.4 660 330V510C660 526.6 673.4 540 690 540H750C799.7 540 840 499.7 840 450L840 450zM780 450C780 433.4 766.6 420 750 420H720V480H750C766.6 480 780 466.6 780 450z" />
    <glyph glyph-name="flash-off"
      unicode="&#xE02C;"
      horiz-adv-x="660" d=" M660 240C660 206.9 633.1 180 600 180C582.3 180 566.4 187.7000000000001 555.4 199.9L555.4 199.9C475.1 289.1 95.7 710.7 15.4 799.9L15.4 799.9C5.8 810.5 0 824.6 0 840C0 873.1 26.9 900 60 900C77.7 900 93.6 892.3 104.6 880.1L104.6 880.1C122 860.8 153.5 825.8 192.9 782C241 868.6 285.3 948.3 306.7 986.7C316.5 1006.5 336.5 1020 360.1 1020C393.3 1020 420.2 993.1 420.2 960C420.2 957.1 419.6 951.4 419.6 951.4C419.6 951.4 382.8 694.4 369.3 600C427.2 600 449.1 600 540.4 600C573.6 600 600 573.1 600 540C600 529.4 597 519.5 592 510.9C592 510.9 567.8 467.3 532.8 404.4C583.0999999999999 348.5 623.8 303.2 644.5999999999999 280.2L644.5999999999999 280.2C654.2 269.5 660 255.4 660 240zM8 449.1C3 440.5 0 430.5 0 420C0 386.9 26.5 360 59.7 360C150.9 360 172.9 360 230.8 360C214.6 247 180.5 8.6 180.5 8.6C180.1 5.8000000000001 179.9 2.9 179.9 0C179.9 -33.1 206.8 -60 240 -60C263.6 -60 283.6 -46.4 293.4 -26.7C317.8 17.0999999999999 372.1 114.8 427.8 215.0999999999999C339 313.8 196 472.5999999999999 87.9 592.8C42.1 510.6 8 449.1 8 449.1z" />
    <glyph glyph-name="flash"
      unicode="&#xE02D;"
      horiz-adv-x="600" d=" M592 510.9C597 519.5 600 529.5 600 540C600 573.1 573.5 600 540.4 600C449.2 600 427.2 600 369.3 600C382.8 694.4 419.6 951.4 419.6 951.4C419.6 951.4 420.2 957.1 420.2 960C420.2 993.1 393.3 1020 360.1 1020C336.5 1020 316.5 1006.4 306.7 986.7C247 879.3 8 449.1 8 449.1C3 440.5 0 430.5 0 420C0 386.9 26.5 360 59.7 360C150.9 360 172.9 360 230.8 360C214.6 247 180.5 8.6 180.5 8.6C180.1 5.8000000000001 179.9 2.9 179.9 0C179.9 -33.1 206.8 -60 240 -60C263.6 -60 283.6 -46.4 293.4 -26.7C353 80.7000000000001 592 510.9 592 510.9z" />
    <glyph glyph-name="folder"
      unicode="&#xE02E;"
      horiz-adv-x="960" d=" M960 600V180C960 113.7000000000001 906.3 60 840 60H120C53.7 60 0 113.7000000000001 0 180V840C0 906.3 53.7 960 120 960H360C426.3 960 480 906.3 480 840V720H840C906.3 720 960 666.3 960 600z" />
    <glyph glyph-name="fork"
      unicode="&#xE02F;"
      horiz-adv-x="960" d=" M960 750C960 866 866 960 750 960S540 866 540 750C540 675.4 578.9 610 637.4 572.7C606.7 517.4 547.7 480 480 480C431.5 480 384.3 470.5 339.8 451.6C326.1 445.8000000000001 312.8 439.2000000000001 300 431.8000000000001V680.2C370.9 713.9 420 786.2 420 870C420 986 326 1080 210 1080S0 986 0 870C0 786.2 49.1 713.9 120 680.2V279.8C49.1 246.1 0 173.8 0 90C0 -26 94 -120 210 -120S420 -26 420 90C420 151.7000000000001 393.4 207.1 351.1 245.6C383.8 279.1 429.4 300 480 300C528.5 300 575.7 309.5 620.2 328.4C663.1 346.5 701.6 372.5 734.6 405.5C767.6 438.5 793.5 477 811.7 519.9C816.4000000000001 530.9 820.5 542.0999999999999 824 553.5C903.4 583.3 960 660 960 750zM210 960C259.7 960 300 919.7 300 870S259.7 780 210 780S120 820.3 120 870S160.3 960 210 960zM210 0C160.3 0 120 40.3 120 90S160.3 180 210 180S300 139.7000000000001 300 90S259.7 0 210 0zM750 660C700.3 660 660 700.3 660 750S700.3 840 750 840S840 799.7 840 750S799.7 660 750 660z" />
    <glyph glyph-name="gear"
      unicode="&#xE030;"
      horiz-adv-x="960" d=" M901.2 551.8L763.2 579.4000000000001C759.5 589.9000000000001 755.3000000000001 600.1 750.5 610L828.6 727.1C846.9 754.6 842.8000000000001 796.1 819.5 819.4000000000001C796.2 842.7 754.6 846.8000000000001 727.2 828.5L610.1 750.4000000000001C600.2 755.2 590 759.4000000000001 579.5 763.1L551.9 901.1C545.3 933.5 513 960 480 960S414.7 933.5 408.2 901.2L380.6 763.2C370.1 759.5 359.9 755.3 350 750.5L232.9 828.6C205.4 846.9 163.9 842.8 140.6 819.5C117.3 796.2 113.2 754.6 131.5 727.2L209.6 610.1C204.8 600.2 200.6 590 196.9 579.5L58.9 551.9C26.5 545.3 0 513 0 480S26.5 414.7000000000001 58.8 408.2000000000001L196.8 380.6C200.5 370.1 204.7 359.9 209.5 350L131.4 232.9C113.1 205.4 117.2 163.9 140.5 140.6C163.8 117.3000000000001 205.4 113.2000000000001 232.8 131.5L349.9 209.6C359.8 204.8000000000001 370 200.6 380.5 196.9L408.1 58.9C414.7 26.5 447 0 480 0S545.3 26.5 551.8 58.8L579.4 196.8C589.9 200.5 600.1 204.6999999999999 610 209.5L727.1 131.4C754.6 113.1 796.1 117.1999999999999 819.4 140.5C842.6999999999999 163.8 846.8 205.4 828.5 232.8L750.4 349.9C755.1999999999999 359.8 759.4 370 763.1 380.5L901.1 408.1C933.5 414.7000000000001 960 447 960 480S933.5 545.3 901.2 551.8zM600 480C600 413.7000000000001 546.3 360 480 360S360 413.7000000000001 360 480S413.7 600 480 600S600 546.3 600 480z" />
    <glyph glyph-name="github"
      unicode="&#xE031;"
      horiz-adv-x="960" d=" M480 960C214.9 960 0 745.1 0 480C0 267.9 137.5 88 328.3 24.6C352.3 20.2 361.1 35 361.1 47.7C361.1 59.1 360.7000000000001 89.3000000000001 360.5 129.3000000000001C227 100.3000000000001 198.8 193.6 198.8 193.6C177 249.1 145.5 263.8000000000001 145.5 263.8000000000001C101.9 293.6 148.8 293.0000000000001 148.8 293.0000000000001C197 289.6000000000002 222.3 243.5000000000001 222.3 243.5000000000001C265.1 170.1000000000001 334.6 191.3000000000001 362 203.6000000000001C366.4 234.6000000000002 378.8 255.8000000000002 392.5 267.8000000000002C285.8 280 173.8 321.2000000000001 173.8 505.1C173.8 557.5 192.5 600.3 223.2 633.9000000000001C218.3 646 201.8 694.8 227.9 760.9000000000001C227.9 760.9000000000001 268.2 773.8000000000001 359.9 711.7C398.2 722.3000000000001 439.2 727.7 480.1 727.9000000000001C520.9 727.7 561.9 722.4000000000001 600.3 711.7C691.9 773.8000000000001 732.1999999999999 760.9000000000001 732.1999999999999 760.9000000000001C758.4 694.8000000000001 741.9 646 736.9999999999999 633.9000000000001C767.7999999999998 600.3 786.2999999999998 557.5 786.2999999999998 505.1C786.2999999999998 320.7000000000001 674.0999999999998 280.1 567.0999999999999 268.2000000000001C584.3 253.4000000000001 599.6999999999999 224.1 599.6999999999999 179.3000000000001C599.6999999999999 115.1 599.0999999999999 63.4000000000001 599.0999999999999 47.6000000000001C599.0999999999999 34.8000000000002 607.6999999999999 19.8000000000002 632.0999999999999 24.5000000000001C822.6 88.2000000000001 960 268 960 480C960 745.1 745.1 960 480 960z" />
    <glyph glyph-name="globe"
      unicode="&#xE032;"
      horiz-adv-x="960" d=" M480 960C214.9 960 0 745.1 0 480S214.9 0 480 0S960 214.9 960 480S745.1 960 480 960zM811.8 339.9C793.6999999999999 297 767.6999999999999 258.5 734.5999999999999 225.4C701.4999999999999 192.3 662.9999999999999 166.3 620.0999999999999 148.1999999999999C613.4999999999999 145.4 606.8 142.8 599.9999999999999 140.4V241C633.0999999999999 241 659.9999999999999 267.9 659.9999999999999 301V361C693.0999999999999 361 719.9999999999999 387.9 719.9999999999999 421S693.0999999999999 481 659.9999999999999 481H599.9999999999999C566.8999999999999 481 539.9999999999999 454.1 539.9999999999999 421H420V481H360V421C360 387.9 386.9 361 420 361V301C420 267.9 446.9 241 480 241V121H507.2C498.2 120.3 489.1 120 480 120C431.3 120 384.2 129.5 339.9 148.2000000000001C297 166.3000000000001 258.5 192.3000000000001 225.4 225.4000000000001C192.3 258.5000000000001 166.3 297.0000000000001 148.2 339.9000000000001C129.5 384.2000000000001 120 431.3 120 480C120 480.3 120 480.7 120 481H360C393.1 481 420 507.9 420 541V601H480C513.1 601 540 627.9 540 661S513.1 721 480 721H450C466.6 721 480 734.4 480 751S466.6 781 450 781H420C420 801.2 410 819 394.8 829.9C422.5 836.6 451 840 480 840C528.7 840 575.8 830.5 620.1 811.8C663 793.7 701.5 767.7 734.6 734.6C767.7 701.5 793.7 663 811.8000000000001 620.1C830.5 575.8 840 528.7 840 480S830.5 384.2000000000001 811.8 339.9z" />
    <glyph glyph-name="graph"
      unicode="&#xE033;"
      horiz-adv-x="960" d=" M900 0H780C746.9 0 720 26.9 720 60V900C720 933.1 746.9 960 780 960H900C933.1 960 960 933.1 960 900V60C960 26.9 933.1 0 900 0zM600 60V420C600 453.1 573.1 480 540 480H420C386.9 480 360 453.1 360 420V60C360 26.9 386.9 0 420 0H540C573.1 0 600 26.9 600 60zM240 60V660C240 693.1 213.1 720 180 720H60C26.9 720 0 693.1 0 660V60C0 26.9 26.9 0 60 0H180C213.1 0 240 26.9 240 60z" />
    <glyph glyph-name="groups"
      unicode="&#xE034;"
      horiz-adv-x="900" d=" M360 780C360 680.6 279.4 600 180 600S0 680.6 0 780S80.6 960 180 960S360 879.4 360 780zM720 600C819.4 600 900 680.6 900 780S819.4 960 720 960S540 879.4 540 780S620.6 600 720 600zM180 420C80.6 420 0 339.4 0 240S80.6 60 180 60S360 140.6 360 240S279.4 420 180 420zM720 420C620.6 420 540 339.4 540 240S620.6 60 720 60S900 140.6 900 240S819.4 420 720 420z" />
    <glyph glyph-name="hammer"
      unicode="&#xE035;"
      horiz-adv-x="1081.1261730969761" d=" M1031.1741397288843 260.9718456725756L1031.1741397288843 260.9718456725756C830.3649635036496 441.0594369134515 803.4369134515119 465.1845672575599 670.398331595412 584.5088633993744C793.526590198123 707.6371220020856 906.5443169968718 820.6548488008342 943.3826903023981 857.4932221063608C954.294056308655 868.3044838373305 961.0010427528676 883.3201251303441 961.0010427528676 899.9374348279458C961.0010427528676 933.0719499478624 934.07299270073 960 900.9384775808134 960C817.4515119916581 960 733.864442127216 960 650.3774765380606 960C565.3889468196039 960 488.4087591240877 925.8644421272159 432.3503649635038 870.606882168926L432.3503649635038 870.606882168926C328.4421272158499 768.2002085505735 255.6663190823776 696.4254431699687 202.8112617309698 644.3712200208549C206.3149113660063 640.8675703858185 209.9186652763296 637.2638164754952 213.9228362877999 633.259645464025C230.2398331595413 616.9426485922836 240.3503649635037 594.4191866527632 240.3503649635037 569.5933263816474C240.3503649635037 519.8415015641292 200.0083420229406 479.4994786235661 150.2565172054224 479.4994786235661C125.3305526590199 479.4994786235661 102.8070907194995 489.6100104275286 86.5901981230449 505.9270072992699C82.2857142857143 510.2314911366005 78.281543274244 514.2356621480708 74.577685088634 517.9395203336808C53.7559958289886 497.4181438998956 39.2408759124088 483.1032325338893 18.0187695516163 462.2815432742439L18.0187695516163 462.2815432742439C6.8070907194995 451.2700729927007 0 436.1543274244005 0 419.436913451512C0 402.8196037539102 6.7069864442127 387.8039624608967 17.6183524504692 376.9927007299269C102.606882168926 292.0041710114703 112.8175182481752 281.793534932221 197.8060479666319 196.8050052137643C208.7174139728884 185.8936392075078 223.733055265902 179.186652763295 240.2502606882169 179.186652763295S271.8832116788322 185.8936392075078 282.6944734098019 196.8050052137643C294.4066736183525 208.5172054223149 313.9270072992701 228.0375391032326 339.1532846715329 253.2638164754952C335.3493222106361 257.067778936392 331.1449426485923 261.2721584984359 326.740354535975 265.6767466110531C310.4233576642336 281.8936392075078 300.3128258602712 304.4171011470281 300.3128258602712 329.3430656934306C300.3128258602712 379.0948905109489 340.6548488008343 419.436913451512 390.4066736183525 419.436913451512C415.332638164755 419.436913451512 437.8561001042753 409.3263816475494 454.07299270073 393.0093847758082C458.577685088634 388.504692387904 462.6819603753912 384.400417101147 466.4859228362878 380.5964546402503C475.9958289885298 390.1063607924922 485.7059436913452 399.8164754953076 495.6162669447342 409.7267987486965C614.9405630865487 276.6882168925964 639.0656934306571 249.7601668404588 819.1532846715329 48.9509906152242L819.1532846715329 48.9509906152242C846.6819603753911 18.3190823774764 886.5234619395204 -1.0010427528676 930.9697601668406 -1.0010427528676C1013.8561001042754 -1.0010427528676 1081.1261730969761 66.2690302398331 1081.1261730969761 149.1553701772679C1081.1261730969761 193.6016684045881 1061.8060479666321 233.4431699687174 1031.1741397288843 260.9718456725756z" />
    <glyph glyph-name="hash"
      unicode="&#xE036;"
      horiz-adv-x="1080" d=" M780 600C813.1 600 840 626.9 840 660S813.1 720 780 720H720V780C720 813.1 693.1 840 660 840S600 813.1 600 780V720H480V780C480 813.1 453.1 840 420 840S360 813.1 360 780V720H300C266.9 720 240 693.1 240 660S266.9 600 300 600H360V480H300C266.9 480 240 453.1 240 420S266.9 360 300 360H360V300C360 266.9 386.9 240 420 240S480 266.9 480 300V360H600V300C600 266.9 626.9 240 660 240S720 266.9 720 300V360H780C813.1 360 840 386.9 840 420S813.1 480 780 480H720V600H780zM600 480H480V600H600V480zM900 1080C600 1080 480 1080 180 1080C80.6 1080 0 999.4 0 900C0 600 0 480 0 180C0 80.6 80.6 0 180 0C480 0 600 0 900 0C999.4 0 1080 80.6 1080 180C1080 480 1080 600 1080 900C1080 999.4 999.4 1080 900 1080zM960 240C960 173.7000000000001 906.3 120 840 120C600 120 480 120 240 120C173.7 120 120 173.7000000000001 120 240C120 480 120 600 120 840C120 906.3 173.7 960 240 960C480 960 600 960 840 960C906.3 960 960 906.3 960 840C960 600 960 480 960 240z" />
    <glyph glyph-name="heart-full"
      unicode="&#xE037;"
      horiz-adv-x="1020" d=" M951.6 450.4L951.6 450.4C670.8 135.2000000000001 670.8 135.2000000000001 577.2 30.1L577.2 30.1C560.7 11.6 536.7 0 510 0S459.3 11.6 442.8 30.1L442.8 30.1C349.2000000000001 135.2000000000001 349.2000000000001 135.2000000000001 68.4 450.4L68.4 450.4C25.9 498.1 0 561 0 630C0 779.1 120.9 900 270 900C374.5 900 465.1 840.6 510 753.8C554.9 840.6 645.5 900 750 900C899.1 900 1020 779.1 1020 630C1020 561 994.1 498.1 951.6 450.4z" />
    <glyph glyph-name="heart"
      unicode="&#xE038;"
      horiz-adv-x="1200" d=" M870 841C910.1 841 947.7 825.4 976.1 797.1S1020 731.2 1020 691.1C1020 672.6 1016.7 654.6 1010.2 637.7C1003.9 621.3000000000001 994.8 606.2 983.1 592.8000000000001C982.8 592.4000000000001 982.4 592 982.1 591.6000000000001C786.9000000000001 367.7000000000001 712.3 282.1000000000002 657.9000000000001 219.6000000000001C637.8000000000001 196.5000000000001 620.1000000000001 176.2000000000002 599.9000000000001 153.0000000000001L581.2 174.4000000000001L217.7 591.8C217.4 592.2 217.1 592.5 216.8 592.9000000000001C205.1 606.3 196 621.4000000000001 189.8 637.8C183.3 654.7 180 672.7 180 691.2C180 731.2 195.6 768.9 223.9 797.2S289.9 841 330 841C354.9 841 378.4 835.2 400.1 823.7C421 812.6 439.2000000000001 796.6 452.8 777.2C486.5 729.4 541.4 700.9 600 700.9S713.5 729.4 747.2 777.2C760.9000000000001 796.6 779.1 812.7 799.9000000000001 823.7C821.6 835.2 845.1 841 870 841M870 1020.8C758.4 1020.8 659.7 965.4 600 880.7C540.3 965.5 441.6 1020.8 330 1020.8C147.7 1020.8 0 873.2 0 691.2C0 608.4 30.6 532.7 81.1 474.8L81.1 474.8C394.9 114.5999999999999 395.1 114.3 509.1 -16.5C509.2 -16.6 509.2 -17.2 509.3 -17.3C509.3 -17.3 509.4 -18 509.4 -18H509.4C531.4000000000001 -43 563.8000000000001 -59.2 599.9000000000001 -59.2C636.0000000000001 -59.2 668.4000000000001 -43 690.4000000000001 -18H690.4000000000001C690.5000000000001 -18 690.5000000000001 -17.3 690.6000000000001 -17.3C690.7000000000002 -17.1999999999999 690.7000000000002 -16.9 690.8000000000002 -16.8C804.8000000000002 113.9000000000001 805.1000000000001 114.5 1119.0000000000002 474.6L1119.0000000000002 474.6C1169.5000000000002 532.5 1200.1000000000001 608.2 1200.1000000000001 691.1C1200 873.2 1052.3 1020.8 870 1020.8L870 1020.8z" />
    <glyph glyph-name="house"
      unicode="&#xE039;"
      horiz-adv-x="840" d=" M840 600C840 390 840 390 840 180C840 113.7000000000001 786.3 60 720 60C652.2 60 594 60 540 60V360H300V60C246 60 187.8 60 120 60C53.7 60 0 113.7000000000001 0 180C0 390 0 390 0 600C0 637.9 17.6 671.7 45 693.7L45 693.7C195 813.7 195 813.7 345 933.7L345 933.7C365.6 950.2 391.6 960 420 960S474.4 950.2 495 933.7L495 933.7C645 813.7 645 813.7 795 693.7L795 693.7C822.4 671.7 840 637.9 840 600z" />
    <glyph glyph-name="image"
      unicode="&#xE03A;"
      horiz-adv-x="1080" d=" M960 1020H120C53.7 1020 0 966.3 0 900V180C0 113.7000000000001 53.7 60 120 60H960C1026.3 60 1080 113.7000000000001 1080 180V900C1080 966.3 1026.3 1020 960 1020zM390 840C439.7 840 480 799.7 480 750S439.7 660 390 660S300 700.3 300 750S340.3 840 390 840zM180 240L360 480L480 360L660 600L900 240H180z" />
    <glyph glyph-name="info"
      unicode="&#xE03B;"
      horiz-adv-x="960" d=" M480 960C214.9 960 0 745.1 0 480S214.9 0 480 0S960 214.9 960 480S745.1 960 480 960zM540 300C540 266.9 513.1 240 480 240L480 240C446.9 240 420 266.9 420 300V480C420 513.1 446.9 540 480 540L480 540C513.1 540 540 513.1 540 480V300zM480 600C446.9 600 420 626.9 420 660S446.9 720 480 720S540 693.1 540 660S513.1 600 480 600z" />
    <glyph glyph-name="liferay-logo-2-tiny"
      unicode="&#xE03C;"
      horiz-adv-x="900" d=" M840 960H60C26.9 960 0 933.1 0 900V120C0 86.9 26.9 60 60 60H840C873.1 60 900 86.9 900 120V900C900 933.1 873.1 960 840 960zM240 360H120V480H240V360zM240 540H120V660H240V540zM240 720H120V840H240V720zM420 180H300V300H420V180zM420 540H300V660H420V540zM420 720H300V840H420V720zM600 180H480V300H600V180zM600 360H480V480H600V360zM600 720H480V840H600V720zM780 180H660V300H780V180zM780 360H660V480H780V360zM780 540H660V660H780V540z" />
    <glyph glyph-name="liferay-logo"
      unicode="&#xE03D;"
      horiz-adv-x="900" d=" M0 960H180V780H0V960zM240 780H420V960H240V780zM480 780H660V960H480V780zM0 540H180V720H0V540zM240 540H420V720H240V540zM720 720V540H900V720H720zM0 300H180V480H0V300zM480 300H660V480H480V300zM720 300H900V480H720V300zM240 60H420V240H240V60zM480 60H660V240H480V60zM720 60H900V240H720V60z" />
    <glyph glyph-name="link"
      unicode="&#xE03E;"
      horiz-adv-x="1020" d=" M1019 761.2C1019 676.7 985.4 595.6 925.6 535.8L798.1 408.4C738.4 348.6 657.3 315 572.8 315S407.2 348.6 347.4 408.4C324.2 431.6 305 457.9 290.2 486.4C290.2 486.4 414.6 596.9 417.5 597.8C419.5 589.3 422.1 581 425.5 572.8C433.5 553.4 445.2 536 460 521.0999999999999C474.9 506.2 492.3 494.6 511.7 486.6C531.1 478.6 551.7 474.4999999999999 572.7 474.4999999999999S614.3000000000001 478.6 633.7 486.6C653.1 494.6 670.5 506.3 685.4000000000001 521.0999999999999L812.9000000000001 648.5999999999999C827.8000000000001 663.5 839.4000000000001 680.9 847.4000000000001 700.3C855.4000000000001 719.6999999999999 859.5000000000001 740.3 859.5000000000001 761.3S855.4000000000001 802.9 847.4000000000001 822.3C839.4000000000001 841.6999999999999 827.7 859.0999999999999 812.9000000000001 874C798.0000000000001 888.9 780.6000000000001 900.5 761.2 908.5C741.8000000000001 916.5 721.2 920.6 700.2 920.6S658.6 916.5 639.2 908.5C619.8000000000001 900.5 602.4000000000001 888.8 587.5 874L578.4 864.9C535.6999999999999 880.8 491 888.9 445.2 888.9C419.5 888.9 394.2 886.4 369.3 881.3L474.9 986.6C534.6 1046.4 615.7 1080 700.2 1080S865.8000000000001 1046.4 925.6 986.6C985.4 926.9 1019 845.8 1019 761.2zM439.6 275.2000000000001L430.5 266.1C415.6 251.2000000000001 398.2 239.6 378.8 231.6C359.4000000000001 223.6 338.8 219.5 317.8 219.5C296.8 219.5 276.2 223.6 256.8 231.6C237.4 239.6 220 251.3000000000001 205.1 266.1C190.2 281 178.6 298.4 170.6 317.8000000000001C162.6 337.2000000000001 158.5 357.8000000000001 158.5 378.8000000000001S162.6 420.4000000000001 170.6 439.8000000000001C178.6 459.2 190.3 476.6000000000001 205.1 491.5000000000001L332.6 619C347.5 633.9000000000001 364.9000000000001 645.5 384.3 653.5C403.7 661.5 424.3 665.6000000000001 445.3 665.6000000000001C466.3 665.6000000000001 486.9 661.5 506.3 653.5C525.7 645.5 543.1 633.8000000000001 558 619C572.9 604.1000000000001 584.5 586.7 592.5 567.3000000000001C595.9 559.1000000000001 598.5 550.8000000000001 600.5 542.3000000000001C603.5 543.2 727.8 653.7 727.8 653.7C712.9 682.2 693.6999999999999 708.6 670.5999999999999 731.7C610.9 791.4 529.8 825 445.2 825S279.6 791.4 219.8 731.6L92.4 604.1C32.6 544.4 -1 463.3 -1 378.8S32.6 213.1999999999999 92.4 153.4C152.2 93.6 233.3 60 317.8 60S483.4 93.6 543.2 153.4L648.7 258.9C623.9000000000001 253.9 598.5 251.3 572.8000000000001 251.3C527 251.2000000000001 482.3 259.3 439.6 275.2000000000001z" />
    <glyph glyph-name="lock"
      unicode="&#xE03F;"
      horiz-adv-x="960" d=" M840 600H780V720C780 885.7 645.7 1020 480 1020H480C314.3 1020 180 885.7 180 720V600H120C53.7 600 0 546.3 0 480V120C0 53.7 53.7 0 120 0H840C906.3 0 960 53.7 960 120V480C960 546.3 906.3 600 840 600zM540 240C540 206.9 513.1 180 480 180L480 180C446.9 180 420 206.9 420 240V360C420 393.1 446.9 420 480 420L480 420C513.1 420 540 393.1 540 360V240zM660 600H300V720C300 768.1 318.7 813.3 352.7 847.3C386.7 881.3 431.9 900 480 900C528.1 900 573.3 881.3 607.3 847.3S660 768.1 660 720V600z" />
    <glyph glyph-name="loop"
      unicode="&#xE040;"
      horiz-adv-x="1200" d=" M840 120L1200 480L840 840L600.5 600L360 840C360 840 3 477 0 480L360 120L540 300L420 420L360 360L240 480L360 600L840 120zM840 600L960 480L840 360L720 480L840 600z" />
    <glyph glyph-name="magnifier"
      unicode="&#xE041;"
      horiz-adv-x="1020" d=" M993.6 213.6L773.8 433.5C815.7 498.9 840 576.6 840 660C840 892 652 1080 420 1080S0 892 0 660S188 240 420 240C503.4 240 581.1 264.3 646.5 306.2000000000001L866.4 86.3000000000001C883.9 68.8 907 60 930 60S976.1 68.8 993.6 86.4C1028.8 121.5 1028.8 178.5 993.6 213.6zM250.3 490.3C205 535.6 180 595.9 180 660S205 784.4 250.3 829.7S355.9 900 420 900S544.4 875 589.7 829.7S660 724.1 660 660S635 535.6 589.7 490.3S484.1 420 420 420S295.6 445 250.3 490.3z" />
    <glyph glyph-name="mail-full"
      unicode="&#xE042;"
      horiz-adv-x="960" d=" M780 840H180C80.6 840 0 759.4 0 660V240C0 140.6 80.6 60 180 60H780C879.4 60 960 140.6 960 240V660C960 759.4 879.4 840 780 840zM810.7 548.5C708 486.9 614 430.4 511.3 368.8C502.2 363.2 491.4 360 480 360S457.8 363.2000000000001 448.7 368.8C346 430.4 252 486.9 149.3 548.5C131.7 558.9 120 578.1 120 600C120 633.1 146.9 660 180 660C191.5 660 202.2 656.8 211.3 651.2C303.7 595.8 389.1 544.5 480 490C570.9 544.6 656.3 595.8 748.7 651.2C757.8000000000001 656.8 768.6 660 780 660C813.1 660 840 633.1 840 600C840 578.1 828.3 558.9 810.7 548.5z" />
    <glyph glyph-name="mail-off"
      unicode="&#xE043;"
      horiz-adv-x="1260" d=" M1221.9 163.5C1194.2 183.5 1144.1000000000001 219.7000000000001 1080 266V660C1080 759.4 999.4 840 900 840H300C295.3 840 290.6 839.8 286 839.5C221.1 886.3 170.5 922.9 142.8 942.9C128 953.6 109.7 960 90 960C40.3 960 0 919.7 0 870C0 839.6 15 812.8 38.1 796.5C185.9 689.7 971.2 122.6 1117.1999999999998 17.2C1131.9999999999998 6.4000000000001 1150.2999999999997 0.1 1169.9999999999998 0.1C1219.6999999999998 0.1 1259.9999999999998 40.4 1259.9999999999998 90.1C1260 120.4 1245 147.2000000000001 1221.9 163.5zM868.7 651.2C877.8000000000001 656.8 888.6 660 900 660C933.1 660 960 633.1 960 600C960 578.1 948.3 558.9 930.7 548.5C885.5 521.4 841.9000000000001 495.3 798.6 469.2C763.8000000000001 494.4 728.3000000000001 520 692.8000000000001 545.6C750.8 580.4 808.2 614.9 868.7 651.2zM120 590.6C337.2 433.8 660.4 200.4 854.7 60H300C200.6 60 120 140.6 120 240V590.6z" />
    <glyph glyph-name="mail"
      unicode="&#xE044;"
      horiz-adv-x="840" d=" M720 780H120C53.7 780 0 726.3 0 660V240C0 173.7000000000001 53.7 120 120 120H720C786.3 120 840 173.7000000000001 840 240V660C840 726.3 786.3 780 720 780zM624 660L420 496.8L216 660H624zM120 240V583.2L382.5 373.2000000000001C393.5 364.4000000000001 406.7 360.1 420 360.1S446.5 364.5 457.5 373.2000000000001L720 583.2V240H120z" />
    <glyph glyph-name="markdown"
      unicode="&#xE045;"
      horiz-adv-x="1380" d=" M1260 900H120C53.7 900 0 846.3 0 780V180C0 113.7000000000001 53.7 60 120 60H1260C1326.3 60 1380 113.7000000000001 1380 180V780C1380 846.3 1326.3 900 1260 900zM780 240H600V472.7L480 352.7000000000001L360 472.7V240H180V720H360L480 600L600 720H780V240zM1080 240L900 480H1020V720H1140V480H1260L1080 240z" />
    <glyph glyph-name="menu-content"
      unicode="&#xE046;"
      horiz-adv-x="900" d=" M780 900V60H120V900H780M900 1020H0V-60H900V1020L900 1020zM660 780H240V660H660V780zM660 540H240V420H660V540zM660 300H240V180H660V300z" />
    <glyph glyph-name="menu"
      unicode="&#xE047;"
      horiz-adv-x="960" d=" M870 780H90C40.3 780 0 820.3 0 870V870C0 919.7 40.3 960 90 960L870 960C919.7 960 960 919.7 960 870V870C960 820.3 919.7 780 870 780zM960 510L960 510C960 559.7 919.7 600 870 600H90C40.3 600 0 559.7 0 510V510C0 460.3 40.3 420 90 420H870C919.7 420 960 460.3 960 510zM960 150L960 150C960 199.7000000000001 919.7 240 870 240H90C40.3 240 0 199.7000000000001 0 150V150C0 100.3 40.3 60 90 60H870C919.7 60 960 100.3 960 150z" />
    <glyph glyph-name="minus"
      unicode="&#xE048;"
      horiz-adv-x="960" d=" M900 540C933.1 540 960 513.1 960 480L960 480C960 446.9 933.1 420 900 420H60C26.9 420 0 446.9 0 480L0 480C0 513.1 26.9 540 60 540H900z" />
    <glyph glyph-name="module"
      unicode="&#xE049;"
      horiz-adv-x="960" d=" M915.3 767.8C761.8 860.3 613.9 949.4 511.4 1011.1C502.3 1016.7 491.5 1020 480 1020S457.8 1016.8 448.6 1011.1C346.1 949.4 198.2 860.3 44.7 767.8C17.9 752.1 0 723.2 0 690C0 510 0 450 0 270C0 236.8 17.9 207.9 44.7 192.2000000000001C198.3 99.7000000000001 346.1 10.6 448.7 -51.1999999999999C457.8 -56.7999999999999 468.6 -60.0999999999999 480.1 -60.0999999999999S502.3 -56.8999999999999 511.4999999999999 -51.1999999999999C614 10.6 761.9 99.7000000000001 915.5 192.2000000000001C942.2 207.8000000000001 960.2 236.8000000000001 960.2 270C960.2 450 960.2 510 960.2 690C960 723.2 942.1 752.1 915.3 767.8zM810.7 608.5C708 546.9 614 490.4 511.3 428.8C502.2 423.2 491.4 420 480 420S457.8 423.2000000000001 448.7 428.8C346 490.4 252 546.9 149.3 608.5C131.7 618.9 120 638.1 120 660S131.7 701.1 149.3 711.5C252 773.1 346 829.6 448.7 891.2C457.8 896.8 468.6 900 480 900S502.2 896.8 511.3 891.2C614 829.6 708 773.1 810.7 711.5C828.2 701 840 681.9 840 660S828.3 618.9 810.7 608.5zM360 660C360 626.9 333.1 600 300 600S240 626.9 240 660S266.9 720 300 720S360 693.1 360 660zM540 540C540 506.9 513.1 480 480 480S420 506.9 420 540S446.9 600 480 600S540 573.1 540 540zM720 660C720 626.9 693.1 600 660 600S600 626.9 600 660S626.9 720 660 720S720 693.1 720 660zM540 780C540 746.9 513.1 720 480 720S420 746.9 420 780S446.9 840 480 840S540 813.1 540 780z" />
    <glyph glyph-name="nodejs"
      unicode="&#xE04A;"
      horiz-adv-x="840" d=" M540 528.3V431.5C540 420.7000000000001 534.2 410.8 524.9 405.5L435.1 354C425.9000000000001 348.7000000000001 414.6 348.7000000000001 405.3 354L315.1 405.5C305.7000000000001 410.8 300 420.8 300 431.6V528.7C300 539.5 305.8 549.4000000000001 315.1 554.7L404.5 605.9000000000001C413.7 611.2 425 611.2 434.3 605.9000000000001L524.9 554.2C534.2 549 540 539 540 528.3zM840 533.4V702.6C840 713.4000000000001 834.2 723.3 824.9 728.7L433.9 956.1C424.7 961.4 413.3 961.3 404.1 956.1L15.1 728.7C5.8 723.3 0 713.4 0 702.6V257.4000000000001C0 246.6000000000002 5.8 236.7000000000001 15.1 231.3000000000001L405.4000000000001 3.9000000000001C414.6 -1.3999999999999 425.9000000000001 -1.3999999999999 435.2000000000001 3.9000000000001L616.6 112.2000000000001C636.8000000000001 123.7000000000001 636.7 152.8000000000001 616.6 164.3000000000001L255.1 370.7000000000001C245.8 376 240 386 240 396.7000000000001V563.5C240 574.3 245.8 584.2 255.1 589.5L404.4 675C413.6 680.3 424.9 680.3 434.2 675L584.9 589.1C594.3 583.8 600 573.8 600 563V430.5C600 407.5 624.9 393 644.9 404.4L824.9 507.2C834.2 512.7 840 522.6 840 533.4z" />
    <glyph glyph-name="pause"
      unicode="&#xE04B;"
      horiz-adv-x="720" d=" M120 60L120 60C53.7 60 0 113.7000000000001 0 180L0 780C0 846.3 53.7 900 120 900H120C186.3 900 240 846.3 240 780V180C240 113.7000000000001 186.3 60 120 60zM720 180V780C720 846.3 666.3 900 600 900H600C533.7 900 480 846.3 480 780V180C480 113.7000000000001 533.7 60 600 60H600C666.3 60 720 113.7000000000001 720 180z" />
    <glyph glyph-name="pen"
      unicode="&#xE04C;"
      horiz-adv-x="960" d=" M960 690C960 665.1 949.9 642.6 933.6 626.4C806.3000000000001 499.1 640.9000000000001 333.7000000000001 513.6 206.4C497.4 190.1 474.9 180 450 180C425.1 180 402.6 190.1 386.4 206.4C296.4 296.4 296.4 296.4 206.4 386.4C190.1 402.6 180 425.1 180 450C180 474.9 190.1 497.4 206.4 513.6C333.7 640.9000000000001 499.1 806.3 626.4 933.6C642.6 949.9 665.1 960 690 960C714.9 960 737.4 949.9 753.6 933.6C843.6 843.6 843.6 843.6 933.6 753.6C949.9 737.4 960 714.9 960 690zM111.2 351.2000000000001C105.8 356.6 98.3 360 90 360C75.4 360 63.3 349.6 60.6 335.8C48.8 277 12.7 97 0.7 36.8C0.3 34.8 0 32.5999999999999 0 30.5C0 13.7 13.7 0 30.5 0C32.7 0 34.8 0.2 36.8 0.7C96.9 12.7 276.9 48.8000000000001 335.7 60.6C349.5 63.3000000000001 359.9 75.4 359.9 90C359.9 98.3 356.5 105.8 351.1 111.2000000000001C308.8 153.6 153.6 308.8 111.2 351.2000000000001z" />
    <glyph glyph-name="people"
      unicode="&#xE04D;"
      horiz-adv-x="1500" d=" M540 750C540 866 634 960 750 960S960 866 960 750S866 540 750 540S540 634 540 750zM810 420C775.7 420 724.3 420 690 420C574 420 480 326 480 210C480 46.7 480 106.7000000000001 480 60C480 26.9 506.9 0 540 0C660 0 840 0 960 0C993.1 0 1020 26.9 1020 60C1020 106.7000000000001 1020 46.7 1020 210C1020 326 926 420 810 420zM180 840C80.6 840 0 759.4 0 660S80.6 480 180 480S360 560.6 360 660S279.4 840 180 840zM180 360C80.6 360 0 279.4 0 180C0 90 0 90 0 60C0 26.9 26.9 0 60 0C90 0 90 0 180 0S270 0 300 0C333.1 0 360 26.9 360 60C360 90 360 90 360 180C360 279.4 279.4 360 180 360zM1320 480C1419.4 480 1500 560.6 1500 660S1419.4 840 1320 840S1140 759.4 1140 660S1220.6 480 1320 480zM1320 360C1220.6 360 1140 279.4 1140 180C1140 90 1140 90 1140 60C1140 26.9 1166.9 0 1200 0C1230 0 1230 0 1320 0S1410 0 1440 0C1473.1 0 1500 26.9 1500 60C1500 90 1500 90 1500 180C1500 279.4 1419.4 360 1320 360z" />
    <glyph glyph-name="person-card"
      unicode="&#xE04E;"
      horiz-adv-x="1140" d=" M840 450C840 367.2000000000001 772.8 300 690 300S540 367.2000000000001 540 450S607.2 600 690 600S840 532.8 840 450zM1140 690C1140 420 1140 360 1140 90C1140 7.2 1072.8 -60 990 -60C931.6 -60 448.4 -60 390 -60C307.2 -60 240 7.2 240 90C240 122.9 240 152.6 240 180C212.6 180 182.9 180 150 180C67.2 180 0 247.2000000000001 0 330C0 600 0 660 0 930C0 1012.8 67.2 1080 150 1080C420 1080 480 1080 750 1080C832.8 1080 900 1012.8 900 930C900 897.1 900 867.4 900 840C927.4 840 957.1 840 990 840C1072.8 840 1140 772.8 1140 690zM390 840C572.8 840 659.4 840 780 840C780 862.9 780 883.2 780 900C780 933.1 753.1 960 720 960C600 960 300 960 180 960C146.9 960 120 933.1 120 900C120 780 120 480 120 360C120 326.9 146.9 300 180 300C196.8 300 217.1 300 240 300C240 420.6 240 507.2 240 690C240 772.8 307.2 840 390 840zM1020 660C1020 693.1 993.1 720 960 720C840 720 540 720 420 720C386.9 720 360 693.1 360 660C360 540 360 240 360 120C360 86.9 386.9 60 420 60C436.8 60 457.1 60 480 60C480 68.1 480 77.9 480 90C480 172.8 547.2 240 630 240C678 240 702 240 750 240C832.8 240 900 172.8 900 90C900 77.9 900 68.1 900 60C922.9 60 943.2 60 960 60C993.1 60 1020 86.9 1020 120C1020 240 1020 540 1020 660z" />
    <glyph glyph-name="person"
      unicode="&#xE04F;"
      horiz-adv-x="720" d=" M720 120L720 120C720 53.7 666.3 0 600 0H120C53.7 0 0 53.7 0 120V120C0 285.7000000000001 134.3 420 300 420H420C585.7 420 720 285.7000000000001 720 120zM360 480C492.5 480 600 587.5 600 720S492.5 960 360 960S120 852.5 120 720S227.5 480 360 480z" />
    <glyph glyph-name="persons"
      unicode="&#xE050;"
      horiz-adv-x="1020" d=" M780 420C750 420 690 420 660 420C603.2 420 551.1 400.3 510 367.3C468.9 400.2 416.8 420 360 420C330 420 270 420 240 420C107.5 420 0 312.5 0 180C0 155.3 0 138.4 0 127.1C0 124.4 0 122.1 0 120C0 86.9 26.9 60 60 60C89.2 60 354.8 60 480 60C509.3 60 530.9 60 540 60C661.8 60 921.9 60 960 60C993.1 60 1020 86.9 1020 120C1020 125.1 1020 127 1020 127.1C1020 138.4 1020 155.3000000000001 1020 180C1020 312.5 912.5 420 780 420zM600 180C600 212.3 593.6 243.1 582 271.2000000000001C603 289.1 630.2 300 660 300C720 300 720 300 780 300C846.3 300 900 246.3 900 180H600zM300 540C390.4 540 469.1 590 510 663.8C550.9 590 629.6 540 720 540C852.5 540 960 647.5 960 780S852.5 1020 720 1020C629.6 1020 550.9 970 510 896.2C469.1 970 390.4 1020 300 1020C167.5 1020 60 912.5 60 780S167.5 540 300 540zM720 900C786.3 900 840 846.3 840 780S786.3 660 720 660S600 713.7 600 780S653.7 900 720 900z" />
    <glyph glyph-name="phone-business"
      unicode="&#xE051;"
      horiz-adv-x="900" d=" M810 900H360V60H810C859.7 60 900 100.3 900 150V810C900 859.7 859.7 900 810 900zM600 240H480V360H600V240zM600 420H480V540H600V420zM780 240H660V360H780V240zM780 420H660V540H780V420zM780 660H480V780H780V660zM240 810C240 630 240 330 240 150C240 100.3 199.7 60 150 60C90 60 150 60 90 60C40.3 60 0 100.3 0 150C0 330 0 630 0 810C0 859.7 40.3 900 90 900C150 900 90 900 150 900C199.7 900 240 859.7 240 810z" />
    <glyph glyph-name="phone-house"
      unicode="&#xE052;"
      horiz-adv-x="840" d=" M420 600C221.2 600 60 438.8 60 240V120H780V240C780 438.8 618.8 600 420 600zM420 240C353.7 240 300 293.7000000000001 300 360S353.7 480 420 480S540 426.3 540 360S486.3 240 420 240zM840 720C840 690 840 690 840 660C840 626.9 813.1 600 780 600C720 600 720 600 660 600C626.9 600 600 626.9 600 660C600 707.5 600 717.4 600 749.3C598 750 595.9 750.7 593.9 751.4C538.1 770.4 479.6 780 420 780S301.9 770.4 246.1 751.4C244.1 750.7 242 750 240 749.3C240 717.4 240 707.6 240 660C240 626.9 213.1 600 180 600C120 600 120 600 60 600C26.9 600 0 626.9 0 660C0 690 0 690 0 720C0 739.5 9.3 756.8 23.7 767.8L23.7 767.8C79.6 809.9 141.5 842.6 207.5 865C275.8 888.2 347.3 900 420 900S564.2 888.2 632.5 865C698.5 842.6 760.4 809.8 816.3 767.8L816.3 767.8C830.7 756.8 840 739.5 840 720z" />
    <glyph glyph-name="phone-work"
      unicode="&#xE053;"
      horiz-adv-x="840" d=" M833.7 213L833.7 213C837.7 221 840 230.3 840 239.9C840 266.4 823 289 799 296.9V296.9C799 296.9 798.8 297 798.7 297C798.4000000000001 297.1 798.1 297.2000000000001 797.8000000000001 297.3C709 326.9 709 327.1 619 356.9V356.9C613 358.9 606.6 360 600 360C583.4 360 568.4 353.3 557.6 342.4C504.5 289.3 498.4 283.2 456.2 241C336.7 299.6 239.6 396.7000000000001 181 516.1C223.2 558.3 229.4 564.5 282.4 617.5H282.4C293.3 628.4 300 643.4 300 659.9C300 666.5 298.9 672.9 296.9 678.9H296.9C267 768.9 266.9 768.9 237.3 857.7C237.2 858 237.1 858.3 237 858.6C237 858.7 236.9 858.9 236.9 858.9H236.9C229 882.9 206.4 899.9 179.9 899.9C170.3 899.9 161 897.6 153 893.6V893.6C93 863.8 93.1 863.6 34.1 834.1C33.8 834 33.5 833.8 33.3 833.7C33.2 833.7 33.1 833.6 33.1 833.6V833.6C14 823.8 -0.1 803.5 -0.1 780C-0.1 776.6 0.2 773.2 0.8 770C6.2 377.3 325.9000000000001 60.6 719.6999999999999 60C719.8 60 719.9 59.9 719.9999999999999 59.9C743.4999999999999 59.9 763.7999999999998 74 773.6999999999999 93H773.6999999999999C773.6999999999999 93 773.8 93.2000000000001 773.8 93.3C773.9 93.5999999999999 774.0999999999999 93.8 774.1999999999999 94C803.7 153 803.8 153 833.7 213z" />
    <glyph glyph-name="phone"
      unicode="&#xE054;"
      horiz-adv-x="600" d=" M480 960H120C53.7 960 0 906.3 0 840V180C0 113.7000000000001 53.7 60 120 60H480C546.3 60 600 113.7000000000001 600 180V840C600 906.3 546.3 960 480 960zM420 180H180V240H420V180zM480 360H120V840H480V360z" />
    <glyph glyph-name="play"
      unicode="&#xE055;"
      horiz-adv-x="720" d=" M0 817.6C0 881 68.5 920.5 123.3 888.8L664.6 576C738.4 533.3 738.4 426.7000000000001 664.6 384.1L123.3 71.2000000000001C68.5 39.5 0 79 0 142.4V817.6z" />
    <glyph glyph-name="plus"
      unicode="&#xE056;"
      horiz-adv-x="900" d=" M810 600C740.1 600 643.1 600 540 600C540 703.1 540 800.1 540 870C540 919.7 499.7 960 450 960S360 919.7 360 870C360 800.1 360 703.1 360 600C256.9 600 159.9 600 90 600C40.3 600 0 559.7 0 510S40.3 420 90 420C159.9 420 256.9 420 360 420C360 316.9 360 219.9 360 150C360 100.3 400.3 60 450 60S540 100.3 540 150C540 219.9 540 316.9 540 420C643.1 420 740.1 420 810 420C859.7 420 900 460.3 900 510S859.7 600 810 600z" />
    <glyph glyph-name="power-button"
      unicode="&#xE057;"
      horiz-adv-x="900" d=" M360 630V990C360 1039.7 400.3 1080 450 1080S540 1039.7 540 990V630C540 580.3 499.7 540 450 540S360 580.3 360 630zM768.2 768.2C733.1 803.3 676.1 803.3 640.9000000000001 768.2C605.8000000000001 733.1 605.8000000000001 676.1 640.9000000000001 640.9C746.3000000000001 535.5 746.3000000000001 364.5 640.9000000000001 259.0999999999999S364.5000000000001 153.6999999999999 259.1000000000001 259.0999999999999S153.7000000000001 535.4999999999999 259.1000000000001 640.8999999999999L259.1000000000001 640.8999999999999C259.3000000000001 641.0999999999999 259.6000000000001 641.3999999999999 259.8000000000001 641.5999999999999C294.9000000000001 676.6999999999999 294.9000000000001 733.6999999999999 259.8000000000001 768.8999999999999C224.7000000000001 803.9999999999999 167.7000000000001 803.9999999999999 132.5000000000001 768.8999999999999C132.3000000000001 768.6999999999999 132.0000000000001 768.3999999999999 131.8000000000001 768.1999999999999L131.8000000000001 768.1999999999999C-43.8999999999999 592.5 -43.8999999999999 307.5 131.8000000000001 131.8C307.5000000000001 -43.9000000000001 592.5 -43.9000000000001 768.2 131.8C943.9 307.5 943.9 592.5 768.2 768.2z" />
    <glyph glyph-name="radio-checked"
      unicode="&#xE058;"
      horiz-adv-x="960" d=" M480 960C214.9 960 0 745.1 0 480S214.9 0 480 0S960 214.9 960 480S745.1 960 480 960zM480 300C380.6 300 300 380.6 300 480S380.6 660 480 660S660 579.4 660 480S579.4 300 480 300z" />
    <glyph glyph-name="radio-unchecked"
      unicode="&#xE059;"
      horiz-adv-x="960" d=" M480 960C214.9 960 0 745.1 0 480S214.9 0 480 0S960 214.9 960 480S745.1 960 480 960zM480 60C248 60 60 248 60 480S248 900 480 900S900 712 900 480S712 60 480 60z" />
    <glyph glyph-name="send"
      unicode="&#xE05A;"
      horiz-adv-x="900" d=" M835.8 373.7000000000001C626 259.3 388.8 129.9 179.1 15.5C161.7 5.6 141.5 0 120 0C53.7 0 0 53.7 0 120C0 145.1 7.7 168.3 20.8 187.6C123.2 341.2000000000001 137.9 363.3 215.8 480C137.9 596.8 123.3 618.8 20.8 772.4C7.7 791.7 0 814.9 0 840C0 906.3 53.7 960 120 960C141.5 960 161.6 954.3 179.1 944.5C388.8 830.1 626 700.7 835.8 586.3C874 566.2 900 526.1 900 480S874 393.8 835.8 373.7000000000001z" />
    <glyph glyph-name="server"
      unicode="&#xE05B;"
      horiz-adv-x="840" d=" M720 420H120C53.7 420 0 366.3 0 300V180C0 113.7000000000001 53.7 60 120 60H720C786.3 60 840 113.7000000000001 840 180V300C840 366.3 786.3 420 720 420zM660 180C626.9 180 600 206.9 600 240S626.9 300 660 300S720 273.1 720 240S693.1 180 660 180zM720 900H120C53.7 900 0 846.3 0 780V660C0 593.7 53.7 540 120 540H720C786.3 540 840 593.7 840 660V780C840 846.3 786.3 900 720 900zM660 660C626.9 660 600 686.9 600 720S626.9 780 660 780S720 753.1 720 720S693.1 660 660 660z" />
    <glyph glyph-name="skype"
      unicode="&#xE05C;"
      horiz-adv-x="960" d=" M733.1 375.6C733.1 417.5 715 453.1 690.6 475.6C666.2 498.1 625.6 517.5 593.7 527.5C577.4000000000001 532.5 559.3000000000001 537.5 538.7 541.9L473.7 556.9C448.7000000000001 562.5 441.8000000000001 563.8 424.3000000000001 570.7C406.8000000000001 577.5999999999999 401.8000000000001 583.2 395.5000000000001 593.8C392.4000000000001 599.4000000000001 390.5000000000001 605.7 390.5000000000001 612.5C390.5000000000001 644.4 420.5000000000001 660.6 480.5000000000001 660.6C516.1 660.6 545.5 649.4000000000001 562.4000000000001 635.6C570.5000000000001 628.7 578.7 621.2 586.2 614.4000000000001C601.2 600 619.3000000000001 588.8 641.2 588.8C680.6 588.8 706.2 619.4000000000001 706.2 656.9C706.2 702.5 654.3000000000001 741.9 582.4000000000001 761.3C546.8000000000001 770.7 508.7000000000001 775.7 468.7000000000001 775.7C411.8000000000002 775.7 358.1000000000002 763.2 311.8000000000001 736.9C265.5000000000001 710.7 234.9000000000001 662.5 234.9000000000001 601.9C234.9000000000001 551.3 251.1000000000001 513.0999999999999 281.8000000000001 488.1C312.4000000000001 463.1 346.2000000000001 449.4 396.2000000000001 437.5L487.4 415C562.4000000000001 396.9 577.4000000000001 388.1 577.4000000000001 355C577.4000000000001 322.5 541.2 298.7000000000001 486.8000000000001 298.7000000000001C444.3000000000001 298.7000000000001 409.3000000000001 314.3000000000001 389.3000000000001 333.1C378.7000000000001 342.5 369.3000000000001 351.8000000000001 360.6000000000001 361.2000000000001C343.1 380 322.5 395 298.1 395C256.2000000000001 395 235.0000000000001 366.9 235.0000000000001 329.4C235 252.5 352.5 190 493.1 190C553.7 190 611.2 205.6 657.5 235C703.7 264.4 733.1 315 733.1 375.6zM960 240C960 107.5 852.5 0 720 0C665.6 0 616.9 16.9 573.8 50C541.9 43.1 510.6999999999999 40 480.1 40C360.7 40 247.6 90 168.8 168.7000000000001C90 247.5 40 360.6 40 480C40 510.6 43.1 541.9 50 573.7C16.9 616.9 0 665.6 0 720C0 852.5 107.5 960 240 960C294.4 960 343.1 943.1 386.2 910C418.1 916.9 449.3 920 479.9 920C599.3 920 713 870.6 791.8 791.9C870.6 713.1 920 599.4 920 480C920 449.4 916.9 418.1 910 386.3C943.1 343.1 960 294.4 960 240z" />
    <glyph glyph-name="speaker-off"
      unicode="&#xE05D;"
      horiz-adv-x="1080" d=" M480 900H540V60H480L240 300H60C26.9 300 0 326.9 0 360V600C0 633.1 26.9 660 60 660H240L480 900zM1048.3 631.7L991.7 688.3L840 536.6L688.3 688.3L631.6999999999999 631.7L783.4 480L631.7 328.3L688.3000000000001 271.7L840 423.4L991.7 271.7000000000001L1048.3 328.3000000000001L896.6 480L1048.3 631.7z" />
    <glyph glyph-name="speaker-on"
      unicode="&#xE05E;"
      horiz-adv-x="1020" d=" M480 900H540V60H480L240 300H60C26.9 300 0 326.9 0 360V600C0 633.1 26.9 660 60 660H240L480 900zM719.5 581.2C712 599 702.5 615.8 691.4 631.4L633.6999999999999 573.7C650.4 546.4 659.9999999999999 514.3 659.9999999999999 480S650.3999999999999 413.6 633.6999999999999 386.3L691.4 328.5999999999999C702.6 344.2 712 360.8999999999999 719.5 378.8C733.1 410.9 740 444.9 740 480S733.1 549.1 719.5 581.2zM880 480C880 531.3 869.9 581 850.1 627.9C834.6 664.5 813.8000000000001 698 788 727.9L731.2 671.0999999999999C774.2 619.2 800 552.5999999999999 800 479.9S774.2 340.5999999999999 731.2 288.7000000000001L788 232C813.8 261.9 834.7 295.5 850.1 332C869.9 379 880 428.7000000000001 880 480zM980.7 674.6C957.3 729.8 924.7 779.8 883.4000000000001 823.4000000000001L826.8000000000001 766.8000000000001C897 691.7 940 590.9 940 480S897 268.3 826.8 193.2000000000001L883.4 136.6C924.6 180.2000000000001 957.3 230.1 980.7 285.4000000000001C1006.8 347 1020 412.5 1020 480S1006.8 613 980.7 674.6z" />
    <glyph glyph-name="speedometer"
      unicode="&#xE05F;"
      horiz-adv-x="960" d=" M480 960C214.9 960 0 745.1 0 480S214.9 0 480 0S960 214.9 960 480S745.1 960 480 960zM811.8 339.9C793.6999999999999 297 767.6999999999999 258.5 734.5999999999999 225.4S662.9999999999999 166.3 620.0999999999999 148.1999999999999C575.8 129.5 528.7 120 480 120C431.3 120 384.2 129.5 339.9 148.2000000000001C297 166.3000000000001 258.5 192.3000000000001 225.4 225.4000000000001C192.3 258.5000000000001 166.3 297.0000000000001 148.2 339.9000000000001C129.5 384.2000000000001 120 431.3 120 480S129.5 575.8 148.2 620.1C166.3 663 192.3 701.5 225.4 734.6C258.5 767.7 297 793.7 339.9 811.8C384.2 830.5 431.3 840 480 840C528.7 840 575.8 830.5 620.1 811.8C663 793.7 701.5 767.7 734.6 734.6S793.7 663 811.8000000000001 620.1C830.5 575.8 840 528.7 840 480S830.5 384.2000000000001 811.8 339.9zM702.4 702.4C679 725.8 641 725.8 617.5 702.4L511.1 595.9C501.2 598.5999999999999 490.8 600 480 600C413.7 600 360 546.3 360 480S413.7 360 480 360S600 413.7000000000001 600 480C600 490.7 598.6 501.2 595.9 511.1L702.4 617.6C725.9 641 725.9 679 702.4 702.4zM450 720L450 720C466.6 720 480 733.4 480 750L480 750C480 766.6 466.6 780 450 780H450C433.4 780 420 766.6 420 750L420 750C420 733.4 433.4 720 450 720zM292.1 608.5C303.8 620.2 303.8 639.2 292.1 650.9C280.4000000000001 662.5999999999999 261.4000000000001 662.5999999999999 249.7 650.9H249.7C238.0000000000001 639.2 238.0000000000001 620.2 249.7 608.5H249.7C261.4 596.8 280.4 596.8 292.1 608.5L292.1 608.5zM210 480L210 480C193.4 480 180 466.6 180 450L180 450C180 433.4 193.4 420 210 420H210C226.6 420 240 433.4 240 450L240 450C240 466.6 226.6 480 210 480zM351.5 289.1C339.8 300.8000000000001 320.8 300.8000000000001 309.1 289.1C297.4000000000001 277.4 297.4000000000001 258.4 309.1 246.7000000000001L309.1 246.7000000000001C320.8 235 339.8 235 351.5 246.7000000000001H351.5C363.2 258.4 363.2 277.4 351.5 289.1L351.5 289.1zM510 240L510 240C493.4 240 480 226.6 480 210L480 210C480 193.4 493.4 180 510 180H510C526.6 180 540 193.4 540 210L540 210C540 226.6 526.6 240 510 240zM710.3 351.5C698.5999999999999 363.2000000000001 679.5999999999999 363.2000000000001 667.9 351.5L667.9 351.5C656.1999999999999 339.8 656.1999999999999 320.8 667.9 309.1C679.6 297.4 698.6 297.4 710.3 309.1H710.3C722.1 320.8 722.1 339.8 710.3 351.5L710.3 351.5zM750 540L750 540C733.4 540 720 526.6 720 510L720 510C720 493.4 733.4 480 750 480H750C766.6 480 780 493.4 780 510L780 510C780 526.6 766.6 540 750 540z" />
    <glyph glyph-name="spinner-double-arrows"
      unicode="&#xE060;"
      horiz-adv-x="1320" d=" M1230 540C1211.2 540 1193.8 534.2 1179.3 524.4C1163.7 514 1150.8 505.4 1139.6 498C1130.2 754.7 919.1 960 660 960C617 960 575.4 954.3 535.7 943.8L535.7 943.7C487.7 930.8 459.2 881.5 472.1 833.5C485 785.5 534.3000000000001 757 582.3000000000001 769.9C583.1 770.1 583.8000000000001 770.3 584.6 770.6C608.7 776.8 633.9 780.2 659.9 780.2C819.4 780.2 949.7 655.8 959.3 498.8C948.4 506.1 935.8 514.5 920.6 524.6C906.2 534.5 888.6999999999999 540.2 869.8999999999999 540.2C820.1999999999998 540.2 779.8999999999999 499.9 779.8999999999999 450.2000000000001C779.8999999999999 418.7000000000001 796.0999999999999 390.9000000000001 820.6999999999998 374.8000000000001C909.6999999999998 315.5000000000001 910.1999999999998 315.1 999.1999999999998 255.8000000000001C1013.5999999999998 245.9000000000001 1031.1 240.2000000000001 1049.8999999999999 240.2000000000001C1068.6999999999998 240.2000000000001 1086.1 246 1100.6 255.8000000000001C1189.6 315.1 1190.1 315.5000000000001 1279.1 374.8000000000001C1303.6999999999998 390.9000000000001 1319.8999999999999 418.6 1319.8999999999999 450.2000000000001C1320 499.7 1279.7 540 1230 540zM847.9 126.6C860.8 78.6 832.3 29.2 784.3 16.4L784.3 16.3C744.7 5.7 703 0 660 0C400.9 0 189.8 205.3 180.3 462.1C169.2 454.7 156.3 446.1 140.6 435.7000000000001C126.2 425.8 108.8 420 90 420C40.3 420 0 460.3 0 510C0 541.5 16.2 569.3 40.8 585.4C129.8 644.7 130.3 645.0999999999999 219.3 704.4C233.7 714.3 251.2 720 270 720C288.8 720 306.2 714.1999999999999 320.7 704.4C409.7 645.0999999999999 410.2 644.7 499.2 585.4C523.8 569.3 540 541.5999999999999 540 510C540 460.3 499.7 420 450 420C431.2 420 413.8 425.8 399.3 435.6C384.1 445.7000000000001 371.5 454.1 360.6 461.4C370.2000000000001 304.4000000000001 500.6 180 660 180C686 180 711 183.3 735.3 189.6C736.0999999999999 189.8000000000001 736.8 190 737.5999999999999 190.3000000000001C785.7 203.1 835 174.6 847.9 126.6z" />
    <glyph glyph-name="spinner-single-arrow"
      unicode="&#xE061;"
      horiz-adv-x="960" d=" M486.5 1136.9C438.5 1124 410 1074.7 422.9 1026.7C425.5 1016.9 429.7 1007.9 435 999.9C445.6 984 454.3 970.9 461.9 959.7C205.2 950.1 -0.1 738.9 0 479.8C0 436.8 5.7 395.2000000000001 16.3 355.5C71.2 150.7000000000001 258.1 -0.1 480.2 0C745.3 0.1 960.1 215.1 960 480.2C960 523.2 954.3 564.9 943.7 604.5L943.6 604.5C941.6 611.9 938.6 619.2 934.6 626.2C909.7 669.2 854.7 684 811.7 659.0999999999999C775 637.9 758.9000000000001 594.6999999999999 770.4000000000001 555.8C776.8000000000001 531.4 780.0000000000001 506.4 780.1000000000001 480.1999999999999C780.2000000000002 314.5 645.9000000000001 180.0999999999999 480.2000000000002 180.0999999999999C341.4000000000002 179.9999999999999 224.6000000000002 274.3 190.3000000000002 402.3C183.6 427 180 453 180 479.9C179.9 639.4 304 769.8 461.3 779.4C453.9 768.3 445.3 755.4 435 739.9L435 739.9C421.2 719.0999999999999 416 692.7 423 666.7C435.9 618.7 485.2 590.2 533.2 603.0999999999999C555.2 609 573.1 622.5999999999999 584.8000000000001 640.0999999999999L584.8000000000001 640.0999999999999C644.8000000000001 730.0999999999999 644.8000000000001 730.0999999999999 704.7 820.0999999999999L704.7 820.0999999999999C718.5 840.9 723.7 867.3 716.7 893.3C714.1 903.1 709.9000000000001 912.1 704.6 920.1C644.7 1009.9 644.6 1010 584.7 1099.8C564 1131.1 524.8 1147.2 486.5 1136.9z" />
    <glyph glyph-name="star"
      unicode="&#xE062;"
      horiz-adv-x="1080" d=" M1080 600C1080 633.1 1053.1 660 1020 660C975.8 660 850.2 660 703.2 660C654.7 805.6 612.4 932.6 597.3 977.8C597.1999999999999 978.1 597.0999999999999 978.4 597 978.7C597 978.8 596.9 978.9 596.9 979L596.9 979C589 1002.8 566.5 1020 540 1020S491 1002.8 483.1 979L483.1 979C483.1 978.9 483 978.8 483 978.7C482.9 978.4 482.8 978.1 482.7 977.7C467.6 932.6 425.3 805.6 376.8 660C229.8 660 104.2 660 60 660C26.9 660 0 633.1 0 600C0 579.6 10.2 561.5 25.9 550.7L25.9 550.7C26.1 550.5999999999999 26.2 550.5 26.4 550.3C26.4 550.3 26.5 550.2 26.5 550.2C63.2 524.8 163.7 455.2 281.4 373.8C235.8 237.2000000000001 197 120.7000000000001 183.1 79L183.1 79C181.1 73 180 66.7000000000001 180 60C180 26.9 206.9 0 240 0C252.7 0 264.5 4 274.1 10.7L274.1 10.7C311.3 36.4000000000001 417.1 109.7000000000001 539.9000000000001 194.7000000000001C662.7 109.7000000000001 768.6000000000001 36.4000000000001 805.7 10.7L805.7 10.7C815.4000000000001 4 827.2 0 839.8000000000001 0C872.9000000000001 0 899.8000000000001 26.9 899.8000000000001 60C899.8000000000001 66.6 898.7 73 896.7 79L896.7 79C882.8000000000001 120.7000000000001 844 237.2000000000001 798.4000000000001 373.8C916.1000000000003 455.3 1016.6000000000003 524.9 1053.3000000000002 550.1999999999999C1053.3000000000002 550.1999999999999 1053.4 550.3 1053.4 550.3C1053.6000000000001 550.4 1053.7 550.5 1053.9 550.6999999999999L1053.9 550.6999999999999C1069.8 561.5 1080 579.6 1080 600z" />
    <glyph glyph-name="streams"
      unicode="&#xE063;"
      horiz-adv-x="960" d=" M120 960V840H0V60H840V180H960V960H120zM780 120H60V780H120V180H780V120zM900 240H180V900H900V240zM420 660H240V840H420V660zM420 420H240V600H420V420zM840 780H480V840H840V780zM840 660H480V720H840V660zM840 540H480V600H840V540zM840 420H480V480H840V420zM840 300H240V360H840V300z" />
    <glyph glyph-name="sun"
      unicode="&#xE064;"
      horiz-adv-x="1080" d=" M480 900V960C480 993.1 506.9 1020 540 1020L540 1020C573.1 1020 600 993.1 600 960V900C600 866.9 573.1 840 540 840L540 840C506.9 840 480 866.9 480 900zM840 719C856.6 719 871.6 725.7 882.4 736.6C912.9 767.1 912.9 767.1 943.4 797.6C954.3 808.5 961 823.5 961 840C961 873.1 934.1 900 901 900C884.4 900 869.4 893.3 858.6 882.4C828.1 851.9 828.1 851.9 797.6 821.4C786.7 810.6 780 795.6 780 779C780 745.9 806.9 719 840 719zM1020 540H960C926.9 540 900 513.1 900 480L900 480C900 446.9 926.9 420 960 420H1020C1053.1 420 1080 446.9 1080 480L1080 480C1080 513.1 1053.1 540 1020 540zM180 480L180 480C180 513.1 153.1 540 120 540H60C26.9 540 0 513.1 0 480L0 480C0 446.9 26.9 420 60 420H120C153.1 420 180 446.9 180 480zM540 120L540 120C506.9 120 480 93.1 480 60V0C480 -33.1 506.9 -60 540 -60L540 -60C573.1 -60 600 -33.1 600 0V60C600 93.1 573.1 120 540 120zM240 239C223.4 239 208.4 232.3 197.6 221.4C167.6 191.4 167.6 191.4 137.6 161.4C126.7 150.6 120 135.6 120 119C120 85.9 146.9 59 180 59C196.6 59 211.6 65.7000000000001 222.4 76.6C252.4 106.6 252.4 106.6 282.4 136.6C293.3 147.5 300 162.5 300 179C300 212.1 273.1 239 240 239zM197.6 737.6C208.5 726.7 223.5 720 240 720C273.1 720 300 746.9 300 780C300 796.6 293.3 811.6 282.4 822.4C252.4 852.4 252.4 852.4 222.4 882.4C211.6 893.3 196.6 900 180 900C146.9 900 120 873.1 120 840C120 823.4 126.7 808.4 137.6 797.6C167.6 767.6 167.6 767.6 197.6 737.6zM883.4 221.4C872.6 232.3 857.6 239 841 239C807.9 239 781 212.1 781 179C781 162.4 787.7 147.4 798.6 136.6C828.6 106.6 828.6 106.6 858.6 76.6C869.5 65.7000000000001 884.5 59 901 59C934.1 59 961 85.9 961 119C961 135.6 954.3 150.6 943.4 161.4C913.4 191.4 913.4 191.4 883.4 221.4zM780 480C780 347.5 672.5 240 540 240S300 347.5 300 480S407.5 720 540 720S780 612.5 780 480zM660 480C660 546.3 606.3 600 540 600S420 546.3 420 480S473.7 360 540 360S660 413.7000000000001 660 480z" />
    <glyph glyph-name="swift"
      unicode="&#xE065;"
      horiz-adv-x="960" d=" M724.1 119.5C611 54.2 455.5 47.5 299.1 114.5C172.5 168.4 67.4 262.7000000000001 0 370.5C32.3 343.6 70.1 322 110.5 303.1C272 227.4 433.6 232.6 547.2 302.9C547.1 303 547.1 303 547 303.1C385.3 427.1 247.9 588.7 145.5 720.8C123.9 742.4 107.8 769.3 91.6 793.6C215.6 680.4000000000001 412.3 537.6 482.3 497.2C334.2 653.5 202.1 847.5 207.5 842.1C441.9 605 660.2 470.2 660.2 470.2C667.4000000000001 466.1 673 462.7 677.5 459.7C682.2 471.7 686.4 484.2 689.9 497.1C727.6 634.5 684.5 790.8 590.1999999999999 920.2C808.5 788.2 937.8 540.2 883.8999999999999 332.7000000000001C882.4999999999999 327.1 880.9999999999999 321.6 879.2999999999998 316.2000000000001C879.8999999999999 315.4000000000001 880.5999999999998 314.7000000000001 881.1999999999998 313.9000000000001C988.9999999999998 179.2000000000001 959.2999999999998 36.3000000000001 945.8999999999997 63.3000000000001C887.4 177.7000000000001 779.1 142.7000000000001 724.1 119.5L724.1 119.5z" />
    <glyph glyph-name="table"
      unicode="&#xE066;"
      horiz-adv-x="960" d=" M840 960H120C53.7 960 0 906.3 0 840V120C0 53.7 53.7 0 120 0H840C906.3 0 960 53.7 960 120V840C960 906.3 906.3 960 840 960zM780 540H540V780H780V540zM420 780V540H180V780H420zM180 420H420V180H180V420zM540 180V420H780V180H540z" />
    <glyph glyph-name="tag"
      unicode="&#xE067;"
      horiz-adv-x="960" d=" M933.6 513.6C806.3000000000001 640.9000000000001 640.9000000000001 806.3 513.6 933.6C497.4 949.9 474.9 960 450 960C270 960 270 960 90 960C40.3 960 0 919.7 0 870C0 690 0 690 0 510C0 485.1 10.1 462.6 26.4 446.4C153.7 319.1 319.1 153.7000000000001 446.4 26.4C462.7 10.1 485.2 0 510 0C534.9 0 557.4 10.1 573.6 26.4C700.9 153.6999999999999 806.3 259.0999999999999 933.6 386.4C949.9 402.7 960 425.2 960 450S949.9 497.4 933.6 513.6zM270 600C220.3 600 180 640.3 180 690S220.3 780 270 780S360 739.7 360 690S319.7 600 270 600z" />
    <glyph glyph-name="thumb-down"
      unicode="&#xE068;"
      horiz-adv-x="780" d=" M780 540C780 506.9 753.1 480 720 480H660C626.9 480 600 506.9 600 540V840C600 873.1 626.9 900 660 900H720C753.1 900 780 873.1 780 840V540zM0 420C0 386.9 26.9 360 60 360C176.9 360 206.8 360 290.9 360C261.6 226 259.7 216.6 241.4 132.8L241.4 132.8C240.5 128.6999999999999 240 124.4 240 120L300 60C320 60 337.8 69.8 348.7 84.9L348.7 84.9C404.9 162.8 404.9 162.9 517.2 318.5999999999999C531.6 338.3999999999999 540 362.7 540 388.9999999999999C540 628.9999999999999 540 719.9999999999999 540 839.9999999999999C540 873.0999999999999 513.1 899.9999999999999 480 899.9999999999999H240C223.4 899.9999999999999 208.4 892.9999999999999 197.6 881.9999999999999H197.8C167.8 851.9999999999999 168 852.3999999999999 138 822.3999999999999V822.3999999999999C131 815.8999999999999 126.1 807.9999999999999 123.1 798.9999999999999H123.1C123.1 798.9999999999999 123 798.8 123 798.6999999999998C122.9 798.3999999999999 122.8 798.0999999999999 122.7 797.7999999999998C94.7 713.6999999999998 93.1 708.8999999999999 67.6 632.4999999999999C47.1 611.9999999999999 43.8 608.6999999999998 17.6 582.4999999999999L17.6 582.4999999999999C6.7 571.6 0 556.6 0 540V420z" />
    <glyph glyph-name="thumb-up"
      unicode="&#xE069;"
      horiz-adv-x="780" d=" M180 420V120C180 86.9 153.1 60 120 60H60C26.9 60 0 86.9 0 120V420C0 453.1 26.9 480 60 480H120C153.1 480 180 453.1 180 420zM780 540C780 573.1 753.1 600 720 600C603.1 600 573.2 600 489.1 600C518.4 734.4 520.3000000000001 743.4 538.6 827.2L538.6 827.2C539.5 831.3 540 835.6 540 840L480 900C460 900 442.2 890.2 431.3 875.1L431.3 875.1C375.1 797.2 375.1 797.1 262.8 641.4C248.5 621.6 240 597.3 240 571C240 331 240 240 240 120C240 86.9 266.9 60 300 60H540C556.6 60 571.6 67 582.4 78H582.1999999999999C612.1999999999999 108 611.9999999999999 107.6 641.9999999999999 137.6V137.6C648.9999999999999 144.1 653.8999999999999 152 656.8999999999999 161H656.8999999999999C656.8999999999999 161 656.9999999999999 161.2000000000001 656.9999999999999 161.3C657.0999999999999 161.5999999999999 657.1999999999999 161.9 657.2999999999998 162.1999999999999C685.2999999999998 246.3 686.8999999999999 251.0999999999999 712.3999999999999 327.5C732.8999999999999 348 736.1999999999998 351.3 762.3999999999999 377.5L762.3999999999999 377.5C773.2999999999998 388.4 779.9999999999999 403.4 779.9999999999999 419.9V540z" />
    <glyph glyph-name="trash"
      unicode="&#xE06A;"
      horiz-adv-x="900" d=" M123 600H780V120C780 53.7 726.3 0 660 0H243.2C176.9 0 123 53.7 123 120V600zM900 750C900 700.3 859.7 660 810 660H90C40.3 660 0 700.3 0 750S40.3 840 90 840H242.1C240.7 849.8 240 859.8 240 870C240 986 334 1080 450 1080S660 986 660 870C660 859.8 659.3 849.8 657.9 840H810C859.7 840 900 799.7 900 750zM540 870C540 894 530.6 916.6 513.6 933.6C496.6 950.6 474 960 450 960S403.4 950.6 386.4 933.6C369.4 916.6 360 894 360 870C360 859.6 361.8 849.5 365.1 840H534.9000000000001C538.2 849.5 540 859.6 540 870z" />
    <glyph glyph-name="twitter"
      unicode="&#xE06B;"
      horiz-adv-x="960" d=" M960 807.4C932.6 767.8 899.7 733.7 861.3 705.6C861.9 700.1 861.9 691.6 861.9 680C861.9 574.6 831.4 467.3 768.6999999999999 370.4C705.3 273.5 621.3 197.3 498.8999999999999 153.5C437.4 131 372.2 120 302.1 120C191.9 120 91.4 149.2000000000001 0 208.4C14 206.6 29.8 206 47.5 206C138.9 206 220.5 234 291.8 290.1C206.5 291.9 132.8 348 107.8 426.6C121.2 424.8000000000001 133.4 423.6 145 423.6C162.7 423.6 179.7 426 196.8 430.3000000000001C106 449.1 39 528.3 39 623.3V625.7C66.4 610.5 96.3 601.9 127.9 600.7C74.3 636.7 40.2 697 40.2 764.6C40.2 800.6 49.3 833.5 67 863.9C165.1 742.6 311.9 665.9 472.7 657.9C469.7 673.0999999999999 467.8 688.4 467.8 703C467.8 812.2 555.5 900 664.6 900C721.2 900 769.4 879.3 808.4000000000001 837.8C852.9000000000001 846.3 894.3000000000001 862.2 933.3 885.3C918.1 838.4 889.4000000000001 802.4 846.8000000000001 776.8C884.5 781.2 922.2 790.9 960 807.4z" />
    <glyph glyph-name="upload-file"
      unicode="&#xE06C;"
      horiz-adv-x="840" d=" M804.9 804.9C684.9 924.9 684.9 924.9 564.9 1044.9C543.1 1066.6 513.1 1080 480 1080C240 1080 360 1080 120 1080C53.7 1080 0 1026.3 0 960C0 720 0 360 0 120C0 53.7 53.7 0 120 0C213.5 0 288.8 0 360 0C360 79.8 360 183.5 360 275.1C354.7 269.8000000000001 348.9 264 342.4 257.5C331.6 246.7000000000001 316.6 240 300 240C266.9 240 240 266.9 240 300C240 316.6 246.7 331.6 257.6 342.4C317.6 402.4 317.6 402.4 377.6 462.4C388.5 473.3 403.5 480 420 480S451.6 473.3 462.4 462.4C522.4 402.4 522.4 402.4 582.4 342.4C593.3 331.5 600 316.5 600 300C600 266.9 573.1 240 540 240C523.4 240 508.4 246.7000000000001 497.6 257.6C491.1 264.1 485.3 269.9 480 275.2000000000001C480 183.6 480 79.9000000000001 480 0.1C551.2 0.1 626.5 0.1 720 0.1C786.3 0.1 840 53.8000000000001 840 120.1C840 360.1 840 480.1 840 720.1C840 753.1 826.6 783.1 804.9 804.9zM600 660C540 660 540 660 480 660C446.9 660 420 686.9 420 720C420 780 420 780 420 840C420 873.1 446.9 900 480 900C496.6 900 511.6 893.3 522.4 882.4C582.4 822.4 582.4 822.4 642.4 762.4C653.3 751.5 660 736.5 660 720C660 686.9 633.1 660 600 660z" />
    <glyph glyph-name="upload"
      unicode="&#xE06D;"
      horiz-adv-x="900" d=" M0 690C0 810 0 750 0 870C0 919.7 40.3 960 90 960C270 960 630 960 810 960C859.7 960 900 919.7 900 870C900 750 900 810 900 690C900 640.3 859.7 600 810 600S720 640.3 720 690C720 750 720 765 720 780C561 780 339 780 180 780C180 765 180 750 180 690C180 640.3 139.7 600 90 600S0 640.3 0 690zM513.6 693.6C497.4 709.9 474.9 720 450 720S402.6 709.9 386.4 693.6C266.4 573.6 266.4 573.6 146.4 453.6C130.1 437.4 120 414.9 120 390C120 340.3 160.3 300 210 300C234.9 300 257.4 310.1 273.6 326.4C312.1 364.9 338 391 360 412.8C360 281.4 360 143.8 360 30.0999999999999C360 -19.6000000000001 400.3 -59.9000000000001 450 -59.9000000000001S540 -19.6000000000001 540 30.0999999999999C540 143.8 540 281.4999999999999 540 412.8C562 391.0999999999999 587.9 364.9 626.4 326.4C642.6999999999999 310.1 665.1999999999999 300 690 300C739.7 300 780 340.3 780 390C780 414.9 769.9 437.4 753.6 453.6C633.6 573.6 633.6 573.6 513.6 693.6z" />
  </font>
</defs>
</svg>
